G04 Layer_Color=8421504*
%FSLAX43Y43*%
%MOMM*%
G71*
G01*
G75*
%ADD10R,0.800X1.600*%
%ADD11R,0.610X0.559*%
%ADD12R,0.559X0.610*%
%ADD13R,0.559X2.184*%
%ADD14R,2.400X3.300*%
%ADD15O,1.500X0.550*%
%ADD16O,1.600X0.600*%
%ADD17R,1.600X0.800*%
%ADD18R,3.000X2.100*%
%ADD23C,0.762*%
%ADD24C,0.762*%
D10*
X45990Y7036D02*
D03*
X44740D02*
D03*
X43490D02*
D03*
X42240D02*
D03*
X31222Y7229D02*
D03*
X29972D02*
D03*
X28722D02*
D03*
X27472D02*
D03*
D11*
X28575Y10630D02*
D03*
Y9792D02*
D03*
D12*
X28461Y13106D02*
D03*
X27622D02*
D03*
D13*
X72720Y39472D02*
D03*
X73990D02*
D03*
X75260D02*
D03*
X76530D02*
D03*
Y34747D02*
D03*
X75260D02*
D03*
X73990D02*
D03*
X72720D02*
D03*
D14*
X22474Y50444D02*
D03*
X15524D02*
D03*
X22474Y45441D02*
D03*
X15524D02*
D03*
X3789Y20193D02*
D03*
X10739D02*
D03*
X3789Y14834D02*
D03*
X10739D02*
D03*
D15*
X81321Y25933D02*
D03*
Y27203D02*
D03*
Y28473D02*
D03*
Y29743D02*
D03*
X75921Y25933D02*
D03*
Y27203D02*
D03*
Y28473D02*
D03*
Y29743D02*
D03*
D16*
X87031Y59994D02*
D03*
Y60994D02*
D03*
Y61994D02*
D03*
Y62994D02*
D03*
Y63994D02*
D03*
Y64994D02*
D03*
Y65994D02*
D03*
Y66994D02*
D03*
Y67994D02*
D03*
Y68994D02*
D03*
Y69994D02*
D03*
Y70994D02*
D03*
Y71994D02*
D03*
Y72994D02*
D03*
Y73994D02*
D03*
Y74994D02*
D03*
Y75994D02*
D03*
Y76994D02*
D03*
Y77994D02*
D03*
Y78994D02*
D03*
X81331D02*
D03*
Y77994D02*
D03*
Y76994D02*
D03*
Y75994D02*
D03*
Y74994D02*
D03*
Y73994D02*
D03*
Y72994D02*
D03*
Y71994D02*
D03*
Y70994D02*
D03*
Y69994D02*
D03*
Y68994D02*
D03*
Y67994D02*
D03*
Y66994D02*
D03*
Y65994D02*
D03*
Y64994D02*
D03*
Y63994D02*
D03*
Y62994D02*
D03*
Y61994D02*
D03*
Y60994D02*
D03*
Y59994D02*
D03*
X8824Y63470D02*
D03*
Y64470D02*
D03*
Y65470D02*
D03*
Y66470D02*
D03*
Y67470D02*
D03*
Y68470D02*
D03*
Y69470D02*
D03*
Y70470D02*
D03*
Y71470D02*
D03*
Y72470D02*
D03*
Y73470D02*
D03*
Y74470D02*
D03*
Y75470D02*
D03*
Y76470D02*
D03*
Y77470D02*
D03*
X3124D02*
D03*
Y76470D02*
D03*
Y75470D02*
D03*
Y74470D02*
D03*
Y73470D02*
D03*
Y72470D02*
D03*
Y71470D02*
D03*
Y70470D02*
D03*
Y69470D02*
D03*
Y68470D02*
D03*
Y67470D02*
D03*
Y66470D02*
D03*
Y65470D02*
D03*
Y64470D02*
D03*
Y63470D02*
D03*
D17*
X7042Y53855D02*
D03*
Y52605D02*
D03*
Y51355D02*
D03*
Y50105D02*
D03*
Y48855D02*
D03*
D18*
X4142Y56405D02*
D03*
Y46305D02*
D03*
D23*
X90170Y92202D02*
G03*
X90058Y92472I-381J0D01*
G01*
X90170Y92202D02*
G03*
X90058Y92471I-381J0D01*
G01*
X88154Y94376D02*
G03*
X87694Y94437I-270J-269D01*
G01*
X88153Y94376D02*
G03*
X87694Y94437I-269J-269D01*
G01*
X90058Y4988D02*
G03*
X90170Y5258I-269J269D01*
G01*
X90058Y4988D02*
G03*
X90170Y5258I-269J270D01*
G01*
X85700Y787D02*
G03*
X85969Y899I0J381D01*
G01*
X85700Y787D02*
G03*
X85969Y899I0J381D01*
G01*
X4775Y94437D02*
G03*
X4506Y94326I0J-381D01*
G01*
X4775Y94437D02*
G03*
X4505Y94325I0J-381D01*
G01*
X417Y90237D02*
G03*
X305Y89967I269J-270D01*
G01*
X416Y90236D02*
G03*
X305Y89967I269J-269D01*
G01*
X3464Y899D02*
G03*
X3734Y787I269J269D01*
G01*
X305Y4216D02*
G03*
X416Y3947I381J0D01*
G01*
X305Y4216D02*
G03*
X417Y3947I381J0D01*
G01*
X3464Y899D02*
G03*
X3734Y787I270J269D01*
G01*
X3439Y925D02*
G03*
X3439Y924I270J269D01*
G01*
X88153Y94376D02*
X88154Y94376D01*
X90058Y92472D01*
X90058Y92471D01*
X90170Y91821D02*
Y92202D01*
Y5258D02*
Y91821D01*
X90058Y4988D02*
X90058Y4988D01*
X85969Y899D02*
X90058Y4988D01*
X85969Y899D02*
X85969Y899D01*
X84506Y787D02*
X85700D01*
X4801Y94437D02*
X87694D01*
X4775D02*
X4801D01*
X4505Y94325D02*
X4506Y94326D01*
X417Y90237D02*
X4505Y94325D01*
X416Y90236D02*
X417Y90237D01*
X305Y4216D02*
Y89967D01*
X3734Y787D02*
X84506D01*
X416Y3947D02*
X417Y3947D01*
X3439Y925D01*
X3439Y924D01*
X3439Y924D01*
X3464Y899D01*
X3464Y899D01*
D24*
X3439Y924D02*
D03*
M02*
