G04 Layer_Color=2752767*
%FSLAX43Y43*%
%MOMM*%
G71*
G01*
G75*
%ADD23C,0.762*%
%ADD24C,0.762*%
%ADD42C,0.254*%
%ADD118C,0.051*%
%ADD119C,0.068*%
%ADD120C,0.034*%
%ADD121C,0.406*%
%ADD122C,0.203*%
%ADD123C,0.119*%
D23*
X90170Y92202D02*
G03*
X90058Y92472I-381J0D01*
G01*
X90170Y92202D02*
G03*
X90058Y92471I-381J0D01*
G01*
X88154Y94376D02*
G03*
X87694Y94437I-270J-269D01*
G01*
X88153Y94376D02*
G03*
X87694Y94437I-269J-269D01*
G01*
X90058Y4988D02*
G03*
X90170Y5258I-269J269D01*
G01*
X90058Y4988D02*
G03*
X90170Y5258I-269J270D01*
G01*
X85700Y787D02*
G03*
X85969Y899I0J381D01*
G01*
X85700Y787D02*
G03*
X85969Y899I0J381D01*
G01*
X4775Y94437D02*
G03*
X4506Y94326I0J-381D01*
G01*
X4775Y94437D02*
G03*
X4505Y94325I0J-381D01*
G01*
X417Y90237D02*
G03*
X305Y89967I269J-270D01*
G01*
X416Y90236D02*
G03*
X305Y89967I269J-269D01*
G01*
X3464Y899D02*
G03*
X3734Y787I269J269D01*
G01*
X305Y4216D02*
G03*
X416Y3947I381J0D01*
G01*
X305Y4216D02*
G03*
X417Y3947I381J0D01*
G01*
X3464Y899D02*
G03*
X3734Y787I270J269D01*
G01*
X3439Y925D02*
G03*
X3439Y924I270J269D01*
G01*
X88153Y94376D02*
X88154Y94376D01*
X90058Y92472D01*
X90058Y92471D01*
X90170Y91821D02*
Y92202D01*
Y5258D02*
Y91821D01*
X90058Y4988D02*
X90058Y4988D01*
X85969Y899D02*
X90058Y4988D01*
X85969Y899D02*
X85969Y899D01*
X84506Y787D02*
X85700D01*
X4801Y94437D02*
X87694D01*
X4775D02*
X4801D01*
X4505Y94325D02*
X4506Y94326D01*
X417Y90237D02*
X4505Y94325D01*
X416Y90236D02*
X417Y90237D01*
X305Y4216D02*
Y89967D01*
X3734Y787D02*
X84506D01*
X416Y3947D02*
X417Y3947D01*
X3439Y925D01*
X3439Y924D01*
X3439Y924D01*
X3464Y899D01*
X3464Y899D01*
D24*
X3439Y924D02*
D03*
D42*
X81200Y32360D02*
X80185D01*
X81200Y33375D01*
Y33629D01*
X80946Y33883D01*
X80439D01*
X80185Y33629D01*
X97858D02*
X98112Y33883D01*
X98620D01*
X98874Y33629D01*
Y32614D01*
X98620Y32360D01*
X98112D01*
X97858Y32614D01*
Y33629D01*
X99382Y32360D02*
Y32614D01*
X99636D01*
Y32360D01*
X99382D01*
X101667Y33883D02*
X100651D01*
Y33121D01*
X101159Y33375D01*
X101413D01*
X101667Y33121D01*
Y32614D01*
X101413Y32360D01*
X100905D01*
X100651Y32614D01*
X102175Y32360D02*
Y33375D01*
X102429D01*
X102683Y33121D01*
Y32360D01*
Y33121D01*
X102937Y33375D01*
X103191Y33121D01*
Y32360D01*
X103698D02*
Y33375D01*
X103952D01*
X104206Y33121D01*
Y32360D01*
Y33121D01*
X104460Y33375D01*
X104714Y33121D01*
Y32360D01*
X107253D02*
X106745Y32867D01*
Y33375D01*
X107253Y33883D01*
X108015Y32360D02*
X108523D01*
X108269D01*
Y33883D01*
X108015Y33629D01*
X109285Y32614D02*
X109539Y32360D01*
X110046D01*
X110300Y32614D01*
Y33629D01*
X110046Y33883D01*
X109539D01*
X109285Y33629D01*
Y33375D01*
X109539Y33121D01*
X110300D01*
X110808Y32360D02*
Y32614D01*
X111062D01*
Y32360D01*
X110808D01*
X113093Y33883D02*
X112586Y33629D01*
X112078Y33121D01*
Y32614D01*
X112332Y32360D01*
X112839D01*
X113093Y32614D01*
Y32867D01*
X112839Y33121D01*
X112078D01*
X113601Y33629D02*
X113855Y33883D01*
X114363D01*
X114617Y33629D01*
Y33375D01*
X114363Y33121D01*
X114617Y32867D01*
Y32614D01*
X114363Y32360D01*
X113855D01*
X113601Y32614D01*
Y32867D01*
X113855Y33121D01*
X113601Y33375D01*
Y33629D01*
X113855Y33121D02*
X114363D01*
X116140Y33883D02*
X115125D01*
Y33121D01*
X115633Y33375D01*
X115886D01*
X116140Y33121D01*
Y32614D01*
X115886Y32360D01*
X115379D01*
X115125Y32614D01*
X116648Y32360D02*
Y33375D01*
X116902D01*
X117156Y33121D01*
Y32360D01*
Y33121D01*
X117410Y33375D01*
X117664Y33121D01*
Y32360D01*
X118172D02*
X118680D01*
X118426D01*
Y33375D01*
X118172D01*
X119441Y32360D02*
X119949D01*
X119695D01*
Y33883D01*
X119441D01*
X120711Y32360D02*
X121219Y32867D01*
Y33375D01*
X120711Y33883D01*
X131986Y32360D02*
Y33883D01*
X132748D01*
X133002Y33629D01*
Y33121D01*
X132748Y32867D01*
X131986D01*
X133509Y33883D02*
X134525D01*
X134017D01*
Y32360D01*
X135033Y33883D02*
Y32360D01*
Y33121D01*
X136049D01*
Y33883D01*
Y32360D01*
X144784D02*
Y33883D01*
X145546D01*
X145800Y33629D01*
Y33121D01*
X145546Y32867D01*
X144784D01*
X145292D02*
X145800Y32360D01*
X146562D02*
X147070D01*
X147323Y32614D01*
Y33121D01*
X147070Y33375D01*
X146562D01*
X146308Y33121D01*
Y32614D01*
X146562Y32360D01*
X147831Y33375D02*
Y32614D01*
X148085Y32360D01*
X148847D01*
Y33375D01*
X149355Y32360D02*
Y33375D01*
X150117D01*
X150370Y33121D01*
Y32360D01*
X151894Y33883D02*
Y32360D01*
X151132D01*
X150878Y32614D01*
Y33121D01*
X151132Y33375D01*
X151894D01*
X81200Y30835D02*
X80692Y30581D01*
X80185Y30073D01*
Y29566D01*
X80439Y29312D01*
X80946D01*
X81200Y29566D01*
Y29819D01*
X80946Y30073D01*
X80185D01*
X97858Y30581D02*
X98112Y30835D01*
X98620D01*
X98874Y30581D01*
Y29566D01*
X98620Y29312D01*
X98112D01*
X97858Y29566D01*
Y30581D01*
X99382Y29312D02*
Y29566D01*
X99636D01*
Y29312D01*
X99382D01*
X101667Y30835D02*
X101159Y30581D01*
X100651Y30073D01*
Y29566D01*
X100905Y29312D01*
X101413D01*
X101667Y29566D01*
Y29819D01*
X101413Y30073D01*
X100651D01*
X102175Y29312D02*
Y30327D01*
X102429D01*
X102683Y30073D01*
Y29312D01*
Y30073D01*
X102937Y30327D01*
X103191Y30073D01*
Y29312D01*
X103698D02*
Y30327D01*
X103952D01*
X104206Y30073D01*
Y29312D01*
Y30073D01*
X104460Y30327D01*
X104714Y30073D01*
Y29312D01*
X107253D02*
X106745Y29819D01*
Y30327D01*
X107253Y30835D01*
X109031Y29312D02*
X108015D01*
X109031Y30327D01*
Y30581D01*
X108777Y30835D01*
X108269D01*
X108015Y30581D01*
X109539D02*
X109792Y30835D01*
X110300D01*
X110554Y30581D01*
Y30327D01*
X110300Y30073D01*
X110046D01*
X110300D01*
X110554Y29819D01*
Y29566D01*
X110300Y29312D01*
X109792D01*
X109539Y29566D01*
X111062Y29312D02*
Y29566D01*
X111316D01*
Y29312D01*
X111062D01*
X113347Y30835D02*
X112839Y30581D01*
X112332Y30073D01*
Y29566D01*
X112586Y29312D01*
X113093D01*
X113347Y29566D01*
Y29819D01*
X113093Y30073D01*
X112332D01*
X114871Y29312D02*
X113855D01*
X114871Y30327D01*
Y30581D01*
X114617Y30835D01*
X114109D01*
X113855Y30581D01*
X116394Y29312D02*
X115379D01*
X116394Y30327D01*
Y30581D01*
X116140Y30835D01*
X115633D01*
X115379Y30581D01*
X116902Y29312D02*
Y30327D01*
X117156D01*
X117410Y30073D01*
Y29312D01*
Y30073D01*
X117664Y30327D01*
X117918Y30073D01*
Y29312D01*
X118426D02*
X118933D01*
X118680D01*
Y30327D01*
X118426D01*
X119695Y29312D02*
X120203D01*
X119949D01*
Y30835D01*
X119695D01*
X120965Y29312D02*
X121473Y29819D01*
Y30327D01*
X120965Y30835D01*
X131986Y29312D02*
Y30835D01*
X132748D01*
X133002Y30581D01*
Y30073D01*
X132748Y29819D01*
X131986D01*
X133509Y30835D02*
X134525D01*
X134017D01*
Y29312D01*
X135033Y30835D02*
Y29312D01*
Y30073D01*
X136049D01*
Y30835D01*
Y29312D01*
X144784D02*
Y30835D01*
X145546D01*
X145800Y30581D01*
Y30073D01*
X145546Y29819D01*
X144784D01*
X145292D02*
X145800Y29312D01*
X146562D02*
X147070D01*
X147323Y29566D01*
Y30073D01*
X147070Y30327D01*
X146562D01*
X146308Y30073D01*
Y29566D01*
X146562Y29312D01*
X147831Y30327D02*
Y29566D01*
X148085Y29312D01*
X148847D01*
Y30327D01*
X149355Y29312D02*
Y30327D01*
X150117D01*
X150370Y30073D01*
Y29312D01*
X151894Y30835D02*
Y29312D01*
X151132D01*
X150878Y29566D01*
Y30073D01*
X151132Y30327D01*
X151894D01*
X80185Y26518D02*
X80439Y26264D01*
X80946D01*
X81200Y26518D01*
Y27533D01*
X80946Y27787D01*
X80439D01*
X80185Y27533D01*
Y27279D01*
X80439Y27025D01*
X81200D01*
X82724Y27787D02*
X82216Y27533D01*
X81708Y27025D01*
Y26518D01*
X81962Y26264D01*
X82470D01*
X82724Y26518D01*
Y26771D01*
X82470Y27025D01*
X81708D01*
X97858Y27533D02*
X98112Y27787D01*
X98620D01*
X98874Y27533D01*
Y26518D01*
X98620Y26264D01*
X98112D01*
X97858Y26518D01*
Y27533D01*
X99382Y26264D02*
Y26518D01*
X99636D01*
Y26264D01*
X99382D01*
X100651Y27787D02*
X101667D01*
Y27533D01*
X100651Y26518D01*
Y26264D01*
X102175D02*
X102683D01*
X102429D01*
Y27787D01*
X102175Y27533D01*
X103445Y26264D02*
X103952D01*
X103698D01*
Y27787D01*
X103445Y27533D01*
X105730Y26264D02*
X104714D01*
X105730Y27279D01*
Y27533D01*
X105476Y27787D01*
X104968D01*
X104714Y27533D01*
X106238Y26264D02*
Y27279D01*
X106492D01*
X106745Y27025D01*
Y26264D01*
Y27025D01*
X106999Y27279D01*
X107253Y27025D01*
Y26264D01*
X107761D02*
Y27279D01*
X108015D01*
X108269Y27025D01*
Y26264D01*
Y27025D01*
X108523Y27279D01*
X108777Y27025D01*
Y26264D01*
X111316D02*
X110808Y26771D01*
Y27279D01*
X111316Y27787D01*
X113093Y26264D02*
X112078D01*
X113093Y27279D01*
Y27533D01*
X112839Y27787D01*
X112332D01*
X112078Y27533D01*
X113601D02*
X113855Y27787D01*
X114363D01*
X114617Y27533D01*
Y27279D01*
X114363Y27025D01*
X114617Y26771D01*
Y26518D01*
X114363Y26264D01*
X113855D01*
X113601Y26518D01*
Y26771D01*
X113855Y27025D01*
X113601Y27279D01*
Y27533D01*
X113855Y27025D02*
X114363D01*
X115125Y26264D02*
Y27279D01*
X115379D01*
X115633Y27025D01*
Y26264D01*
Y27025D01*
X115886Y27279D01*
X116140Y27025D01*
Y26264D01*
X116648D02*
X117156D01*
X116902D01*
Y27279D01*
X116648D01*
X117918Y26264D02*
X118426D01*
X118172D01*
Y27787D01*
X117918D01*
X119187Y26264D02*
X119695Y26771D01*
Y27279D01*
X119187Y27787D01*
X131986Y26264D02*
Y27787D01*
X132748D01*
X133002Y27533D01*
Y27025D01*
X132748Y26771D01*
X131986D01*
X133509Y27787D02*
X134525D01*
X134017D01*
Y26264D01*
X135033Y27787D02*
Y26264D01*
Y27025D01*
X136049D01*
Y27787D01*
Y26264D01*
X144784D02*
Y27787D01*
X145546D01*
X145800Y27533D01*
Y27025D01*
X145546Y26771D01*
X144784D01*
X145292D02*
X145800Y26264D01*
X146562D02*
X147070D01*
X147323Y26518D01*
Y27025D01*
X147070Y27279D01*
X146562D01*
X146308Y27025D01*
Y26518D01*
X146562Y26264D01*
X147831Y27279D02*
Y26518D01*
X148085Y26264D01*
X148847D01*
Y27279D01*
X149355Y26264D02*
Y27279D01*
X150117D01*
X150370Y27025D01*
Y26264D01*
X151894Y27787D02*
Y26264D01*
X151132D01*
X150878Y26518D01*
Y27025D01*
X151132Y27279D01*
X151894D01*
X80185Y23216D02*
X80692D01*
X80439D01*
Y24739D01*
X80185Y24485D01*
X81454D02*
X81708Y24739D01*
X82216D01*
X82470Y24485D01*
Y23470D01*
X82216Y23216D01*
X81708D01*
X81454Y23470D01*
Y24485D01*
X97858D02*
X98112Y24739D01*
X98620D01*
X98874Y24485D01*
Y23470D01*
X98620Y23216D01*
X98112D01*
X97858Y23470D01*
Y24485D01*
X99382Y23216D02*
Y23470D01*
X99636D01*
Y23216D01*
X99382D01*
X100651Y24739D02*
X101667D01*
Y24485D01*
X100651Y23470D01*
Y23216D01*
X103191Y24739D02*
X102683Y24485D01*
X102175Y23977D01*
Y23470D01*
X102429Y23216D01*
X102937D01*
X103191Y23470D01*
Y23723D01*
X102937Y23977D01*
X102175D01*
X104714Y23216D02*
X103698D01*
X104714Y24231D01*
Y24485D01*
X104460Y24739D01*
X103952D01*
X103698Y24485D01*
X105222Y23216D02*
Y24231D01*
X105476D01*
X105730Y23977D01*
Y23216D01*
Y23977D01*
X105984Y24231D01*
X106238Y23977D01*
Y23216D01*
X106745D02*
Y24231D01*
X106999D01*
X107253Y23977D01*
Y23216D01*
Y23977D01*
X107507Y24231D01*
X107761Y23977D01*
Y23216D01*
X110300D02*
X109792Y23723D01*
Y24231D01*
X110300Y24739D01*
X111062Y24485D02*
X111316Y24739D01*
X111824D01*
X112078Y24485D01*
Y24231D01*
X111824Y23977D01*
X111570D01*
X111824D01*
X112078Y23723D01*
Y23470D01*
X111824Y23216D01*
X111316D01*
X111062Y23470D01*
X112586Y24485D02*
X112839Y24739D01*
X113347D01*
X113601Y24485D01*
Y23470D01*
X113347Y23216D01*
X112839D01*
X112586Y23470D01*
Y24485D01*
X114109Y23216D02*
Y24231D01*
X114363D01*
X114617Y23977D01*
Y23216D01*
Y23977D01*
X114871Y24231D01*
X115125Y23977D01*
Y23216D01*
X115633D02*
X116140D01*
X115886D01*
Y24231D01*
X115633D01*
X116902Y23216D02*
X117410D01*
X117156D01*
Y24739D01*
X116902D01*
X118172Y23216D02*
X118680Y23723D01*
Y24231D01*
X118172Y24739D01*
X131986Y23216D02*
Y24739D01*
X132748D01*
X133002Y24485D01*
Y23977D01*
X132748Y23723D01*
X131986D01*
X133509Y24739D02*
X134525D01*
X134017D01*
Y23216D01*
X135033Y24739D02*
Y23216D01*
Y23977D01*
X136049D01*
Y24739D01*
Y23216D01*
X144784D02*
Y24739D01*
X145546D01*
X145800Y24485D01*
Y23977D01*
X145546Y23723D01*
X144784D01*
X145292D02*
X145800Y23216D01*
X146562D02*
X147070D01*
X147323Y23470D01*
Y23977D01*
X147070Y24231D01*
X146562D01*
X146308Y23977D01*
Y23470D01*
X146562Y23216D01*
X147831Y24231D02*
Y23470D01*
X148085Y23216D01*
X148847D01*
Y24231D01*
X149355Y23216D02*
Y24231D01*
X150117D01*
X150370Y23977D01*
Y23216D01*
X151894Y24739D02*
Y23216D01*
X151132D01*
X150878Y23470D01*
Y23977D01*
X151132Y24231D01*
X151894D01*
X80185Y21437D02*
X80439Y21691D01*
X80946D01*
X81200Y21437D01*
Y21183D01*
X80946Y20929D01*
X80692D01*
X80946D01*
X81200Y20675D01*
Y20422D01*
X80946Y20168D01*
X80439D01*
X80185Y20422D01*
X82724Y21691D02*
X82216Y21437D01*
X81708Y20929D01*
Y20422D01*
X81962Y20168D01*
X82470D01*
X82724Y20422D01*
Y20675D01*
X82470Y20929D01*
X81708D01*
X97858Y21437D02*
X98112Y21691D01*
X98620D01*
X98874Y21437D01*
Y20422D01*
X98620Y20168D01*
X98112D01*
X97858Y20422D01*
Y21437D01*
X99382Y20168D02*
Y20422D01*
X99636D01*
Y20168D01*
X99382D01*
X100651Y21437D02*
X100905Y21691D01*
X101413D01*
X101667Y21437D01*
Y21183D01*
X101413Y20929D01*
X101667Y20675D01*
Y20422D01*
X101413Y20168D01*
X100905D01*
X100651Y20422D01*
Y20675D01*
X100905Y20929D01*
X100651Y21183D01*
Y21437D01*
X100905Y20929D02*
X101413D01*
X102175Y20168D02*
X102683D01*
X102429D01*
Y21691D01*
X102175Y21437D01*
X104460Y20168D02*
X103445D01*
X104460Y21183D01*
Y21437D01*
X104206Y21691D01*
X103698D01*
X103445Y21437D01*
X104968D02*
X105222Y21691D01*
X105730D01*
X105984Y21437D01*
Y21183D01*
X105730Y20929D01*
X105984Y20675D01*
Y20422D01*
X105730Y20168D01*
X105222D01*
X104968Y20422D01*
Y20675D01*
X105222Y20929D01*
X104968Y21183D01*
Y21437D01*
X105222Y20929D02*
X105730D01*
X106492Y20168D02*
Y21183D01*
X106745D01*
X106999Y20929D01*
Y20168D01*
Y20929D01*
X107253Y21183D01*
X107507Y20929D01*
Y20168D01*
X108015D02*
Y21183D01*
X108269D01*
X108523Y20929D01*
Y20168D01*
Y20929D01*
X108777Y21183D01*
X109031Y20929D01*
Y20168D01*
X111570D02*
X111062Y20675D01*
Y21183D01*
X111570Y21691D01*
X112332Y21437D02*
X112586Y21691D01*
X113093D01*
X113347Y21437D01*
Y21183D01*
X113093Y20929D01*
X112839D01*
X113093D01*
X113347Y20675D01*
Y20422D01*
X113093Y20168D01*
X112586D01*
X112332Y20422D01*
X114871Y20168D02*
X113855D01*
X114871Y21183D01*
Y21437D01*
X114617Y21691D01*
X114109D01*
X113855Y21437D01*
X115379Y20168D02*
Y21183D01*
X115633D01*
X115886Y20929D01*
Y20168D01*
Y20929D01*
X116140Y21183D01*
X116394Y20929D01*
Y20168D01*
X116902D02*
X117410D01*
X117156D01*
Y21183D01*
X116902D01*
X118172Y20168D02*
X118680D01*
X118426D01*
Y21691D01*
X118172D01*
X119441Y20168D02*
X119949Y20675D01*
Y21183D01*
X119441Y21691D01*
X131986Y20168D02*
Y21691D01*
X132748D01*
X133002Y21437D01*
Y20929D01*
X132748Y20675D01*
X131986D01*
X133509Y21691D02*
X134525D01*
X134017D01*
Y20168D01*
X135033Y21691D02*
Y20168D01*
Y20929D01*
X136049D01*
Y21691D01*
Y20168D01*
X144784D02*
Y21691D01*
X145546D01*
X145800Y21437D01*
Y20929D01*
X145546Y20675D01*
X144784D01*
X145292D02*
X145800Y20168D01*
X146562D02*
X147070D01*
X147323Y20422D01*
Y20929D01*
X147070Y21183D01*
X146562D01*
X146308Y20929D01*
Y20422D01*
X146562Y20168D01*
X147831Y21183D02*
Y20422D01*
X148085Y20168D01*
X148847D01*
Y21183D01*
X149355Y20168D02*
Y21183D01*
X150117D01*
X150370Y20929D01*
Y20168D01*
X151894Y21691D02*
Y20168D01*
X151132D01*
X150878Y20422D01*
Y20929D01*
X151132Y21183D01*
X151894D01*
X81200Y17120D02*
X80185D01*
X81200Y18135D01*
Y18389D01*
X80946Y18643D01*
X80439D01*
X80185Y18389D01*
X97858D02*
X98112Y18643D01*
X98620D01*
X98874Y18389D01*
Y17374D01*
X98620Y17120D01*
X98112D01*
X97858Y17374D01*
Y18389D01*
X99382Y17120D02*
Y17374D01*
X99636D01*
Y17120D01*
X99382D01*
X100651Y18389D02*
X100905Y18643D01*
X101413D01*
X101667Y18389D01*
Y18135D01*
X101413Y17881D01*
X101667Y17627D01*
Y17374D01*
X101413Y17120D01*
X100905D01*
X100651Y17374D01*
Y17627D01*
X100905Y17881D01*
X100651Y18135D01*
Y18389D01*
X100905Y17881D02*
X101413D01*
X103191Y18643D02*
X102175D01*
Y17881D01*
X102683Y18135D01*
X102937D01*
X103191Y17881D01*
Y17374D01*
X102937Y17120D01*
X102429D01*
X102175Y17374D01*
X103698Y17120D02*
Y18135D01*
X103952D01*
X104206Y17881D01*
Y17120D01*
Y17881D01*
X104460Y18135D01*
X104714Y17881D01*
Y17120D01*
X105222D02*
Y18135D01*
X105476D01*
X105730Y17881D01*
Y17120D01*
Y17881D01*
X105984Y18135D01*
X106238Y17881D01*
Y17120D01*
X108777D02*
X108269Y17627D01*
Y18135D01*
X108777Y18643D01*
X109539Y18389D02*
X109792Y18643D01*
X110300D01*
X110554Y18389D01*
Y18135D01*
X110300Y17881D01*
X110046D01*
X110300D01*
X110554Y17627D01*
Y17374D01*
X110300Y17120D01*
X109792D01*
X109539Y17374D01*
X111062Y18389D02*
X111316Y18643D01*
X111824D01*
X112078Y18389D01*
Y18135D01*
X111824Y17881D01*
X111570D01*
X111824D01*
X112078Y17627D01*
Y17374D01*
X111824Y17120D01*
X111316D01*
X111062Y17374D01*
X112586Y17120D02*
Y17374D01*
X112839D01*
Y17120D01*
X112586D01*
X114617D02*
Y18643D01*
X113855Y17881D01*
X114871D01*
X116394Y18643D02*
X115886Y18389D01*
X115379Y17881D01*
Y17374D01*
X115633Y17120D01*
X116140D01*
X116394Y17374D01*
Y17627D01*
X116140Y17881D01*
X115379D01*
X117918Y18643D02*
X116902D01*
Y17881D01*
X117410Y18135D01*
X117664D01*
X117918Y17881D01*
Y17374D01*
X117664Y17120D01*
X117156D01*
X116902Y17374D01*
X118426Y17120D02*
Y18135D01*
X118680D01*
X118933Y17881D01*
Y17120D01*
Y17881D01*
X119187Y18135D01*
X119441Y17881D01*
Y17120D01*
X119949D02*
X120457D01*
X120203D01*
Y18135D01*
X119949D01*
X121219Y17120D02*
X121727D01*
X121473D01*
Y18643D01*
X121219D01*
X122488Y17120D02*
X122996Y17627D01*
Y18135D01*
X122488Y18643D01*
X131986Y17120D02*
Y18643D01*
X132748D01*
X133002Y18389D01*
Y17881D01*
X132748Y17627D01*
X131986D01*
X133509Y18643D02*
X134525D01*
X134017D01*
Y17120D01*
X135033Y18643D02*
Y17120D01*
Y17881D01*
X136049D01*
Y18643D01*
Y17120D01*
X144784D02*
Y18643D01*
X145546D01*
X145800Y18389D01*
Y17881D01*
X145546Y17627D01*
X144784D01*
X145292D02*
X145800Y17120D01*
X146562D02*
X147070D01*
X147323Y17374D01*
Y17881D01*
X147070Y18135D01*
X146562D01*
X146308Y17881D01*
Y17374D01*
X146562Y17120D01*
X147831Y18135D02*
Y17374D01*
X148085Y17120D01*
X148847D01*
Y18135D01*
X149355Y17120D02*
Y18135D01*
X150117D01*
X150370Y17881D01*
Y17120D01*
X151894Y18643D02*
Y17120D01*
X151132D01*
X150878Y17374D01*
Y17881D01*
X151132Y18135D01*
X151894D01*
X80185Y14072D02*
X80692D01*
X80439D01*
Y15595D01*
X80185Y15341D01*
X81454D02*
X81708Y15595D01*
X82216D01*
X82470Y15341D01*
Y14326D01*
X82216Y14072D01*
X81708D01*
X81454Y14326D01*
Y15341D01*
X83739Y14072D02*
Y15595D01*
X82978Y14833D01*
X83993D01*
X97858Y15341D02*
X98112Y15595D01*
X98620D01*
X98874Y15341D01*
Y14326D01*
X98620Y14072D01*
X98112D01*
X97858Y14326D01*
Y15341D01*
X99382Y14072D02*
Y14326D01*
X99636D01*
Y14072D01*
X99382D01*
X100651Y14326D02*
X100905Y14072D01*
X101413D01*
X101667Y14326D01*
Y15341D01*
X101413Y15595D01*
X100905D01*
X100651Y15341D01*
Y15087D01*
X100905Y14833D01*
X101667D01*
X102175Y14072D02*
X102683D01*
X102429D01*
Y15595D01*
X102175Y15341D01*
X104206Y14072D02*
Y15595D01*
X103445Y14833D01*
X104460D01*
X104968Y14072D02*
Y15087D01*
X105222D01*
X105476Y14833D01*
Y14072D01*
Y14833D01*
X105730Y15087D01*
X105984Y14833D01*
Y14072D01*
X106492D02*
Y15087D01*
X106745D01*
X106999Y14833D01*
Y14072D01*
Y14833D01*
X107253Y15087D01*
X107507Y14833D01*
Y14072D01*
X110046D02*
X109539Y14579D01*
Y15087D01*
X110046Y15595D01*
X110808Y15341D02*
X111062Y15595D01*
X111570D01*
X111824Y15341D01*
Y15087D01*
X111570Y14833D01*
X111316D01*
X111570D01*
X111824Y14579D01*
Y14326D01*
X111570Y14072D01*
X111062D01*
X110808Y14326D01*
X113347Y15595D02*
X112332D01*
Y14833D01*
X112839Y15087D01*
X113093D01*
X113347Y14833D01*
Y14326D01*
X113093Y14072D01*
X112586D01*
X112332Y14326D01*
X113855Y14072D02*
Y14326D01*
X114109D01*
Y14072D01*
X113855D01*
X115125Y14326D02*
X115379Y14072D01*
X115886D01*
X116140Y14326D01*
Y15341D01*
X115886Y15595D01*
X115379D01*
X115125Y15341D01*
Y15087D01*
X115379Y14833D01*
X116140D01*
X116648Y15341D02*
X116902Y15595D01*
X117410D01*
X117664Y15341D01*
Y15087D01*
X117410Y14833D01*
X117664Y14579D01*
Y14326D01*
X117410Y14072D01*
X116902D01*
X116648Y14326D01*
Y14579D01*
X116902Y14833D01*
X116648Y15087D01*
Y15341D01*
X116902Y14833D02*
X117410D01*
X118933Y14072D02*
Y15595D01*
X118172Y14833D01*
X119187D01*
X119695Y14072D02*
Y15087D01*
X119949D01*
X120203Y14833D01*
Y14072D01*
Y14833D01*
X120457Y15087D01*
X120711Y14833D01*
Y14072D01*
X121219D02*
X121727D01*
X121473D01*
Y15087D01*
X121219D01*
X122488Y14072D02*
X122996D01*
X122742D01*
Y15595D01*
X122488D01*
X123758Y14072D02*
X124266Y14579D01*
Y15087D01*
X123758Y15595D01*
X131986Y14072D02*
Y15595D01*
X132748D01*
X133002Y15341D01*
Y14833D01*
X132748Y14579D01*
X131986D01*
X133509Y15595D02*
X134525D01*
X134017D01*
Y14072D01*
X135033Y15595D02*
Y14072D01*
Y14833D01*
X136049D01*
Y15595D01*
Y14072D01*
X144784D02*
Y15595D01*
X145546D01*
X145800Y15341D01*
Y14833D01*
X145546Y14579D01*
X144784D01*
X145292D02*
X145800Y14072D01*
X146562D02*
X147070D01*
X147323Y14326D01*
Y14833D01*
X147070Y15087D01*
X146562D01*
X146308Y14833D01*
Y14326D01*
X146562Y14072D01*
X147831Y15087D02*
Y14326D01*
X148085Y14072D01*
X148847D01*
Y15087D01*
X149355Y14072D02*
Y15087D01*
X150117D01*
X150370Y14833D01*
Y14072D01*
X151894Y15595D02*
Y14072D01*
X151132D01*
X150878Y14326D01*
Y14833D01*
X151132Y15087D01*
X151894D01*
X80185Y11024D02*
X80692D01*
X80439D01*
Y12547D01*
X80185Y12293D01*
X82470Y12547D02*
X81454D01*
Y11785D01*
X81962Y12039D01*
X82216D01*
X82470Y11785D01*
Y11278D01*
X82216Y11024D01*
X81708D01*
X81454Y11278D01*
X97858Y12293D02*
X98112Y12547D01*
X98620D01*
X98874Y12293D01*
Y11278D01*
X98620Y11024D01*
X98112D01*
X97858Y11278D01*
Y12293D01*
X99382Y11024D02*
Y11278D01*
X99636D01*
Y11024D01*
X99382D01*
X100651Y11278D02*
X100905Y11024D01*
X101413D01*
X101667Y11278D01*
Y12293D01*
X101413Y12547D01*
X100905D01*
X100651Y12293D01*
Y12039D01*
X100905Y11785D01*
X101667D01*
X102175Y11024D02*
X102683D01*
X102429D01*
Y12547D01*
X102175Y12293D01*
X104206Y11024D02*
Y12547D01*
X103445Y11785D01*
X104460D01*
X105730Y11024D02*
Y12547D01*
X104968Y11785D01*
X105984D01*
X106492Y11024D02*
Y12039D01*
X106745D01*
X106999Y11785D01*
Y11024D01*
Y11785D01*
X107253Y12039D01*
X107507Y11785D01*
Y11024D01*
X108015D02*
Y12039D01*
X108269D01*
X108523Y11785D01*
Y11024D01*
Y11785D01*
X108777Y12039D01*
X109031Y11785D01*
Y11024D01*
X111570D02*
X111062Y11531D01*
Y12039D01*
X111570Y12547D01*
X112332Y12293D02*
X112586Y12547D01*
X113093D01*
X113347Y12293D01*
Y12039D01*
X113093Y11785D01*
X112839D01*
X113093D01*
X113347Y11531D01*
Y11278D01*
X113093Y11024D01*
X112586D01*
X112332Y11278D01*
X114871Y12547D02*
X114363Y12293D01*
X113855Y11785D01*
Y11278D01*
X114109Y11024D01*
X114617D01*
X114871Y11278D01*
Y11531D01*
X114617Y11785D01*
X113855D01*
X115379Y11024D02*
Y12039D01*
X115633D01*
X115886Y11785D01*
Y11024D01*
Y11785D01*
X116140Y12039D01*
X116394Y11785D01*
Y11024D01*
X116902D02*
X117410D01*
X117156D01*
Y12039D01*
X116902D01*
X118172Y11024D02*
X118680D01*
X118426D01*
Y12547D01*
X118172D01*
X119441Y11024D02*
X119949Y11531D01*
Y12039D01*
X119441Y12547D01*
X131986Y11024D02*
Y12547D01*
X132748D01*
X133002Y12293D01*
Y11785D01*
X132748Y11531D01*
X131986D01*
X133509Y12547D02*
X134525D01*
X134017D01*
Y11024D01*
X135033Y12547D02*
Y11024D01*
Y11785D01*
X136049D01*
Y12547D01*
Y11024D01*
X144784D02*
Y12547D01*
X145546D01*
X145800Y12293D01*
Y11785D01*
X145546Y11531D01*
X144784D01*
X145292D02*
X145800Y11024D01*
X146562D02*
X147070D01*
X147323Y11278D01*
Y11785D01*
X147070Y12039D01*
X146562D01*
X146308Y11785D01*
Y11278D01*
X146562Y11024D01*
X147831Y12039D02*
Y11278D01*
X148085Y11024D01*
X148847D01*
Y12039D01*
X149355Y11024D02*
Y12039D01*
X150117D01*
X150370Y11785D01*
Y11024D01*
X151894Y12547D02*
Y11024D01*
X151132D01*
X150878Y11278D01*
Y11785D01*
X151132Y12039D01*
X151894D01*
X81200Y7976D02*
X80185D01*
X81200Y8991D01*
Y9245D01*
X80946Y9499D01*
X80439D01*
X80185Y9245D01*
X81708D02*
X81962Y9499D01*
X82470D01*
X82724Y9245D01*
Y8230D01*
X82470Y7976D01*
X81962D01*
X81708Y8230D01*
Y9245D01*
X97858D02*
X98112Y9499D01*
X98620D01*
X98874Y9245D01*
Y8230D01*
X98620Y7976D01*
X98112D01*
X97858Y8230D01*
Y9245D01*
X99382Y7976D02*
Y8230D01*
X99636D01*
Y7976D01*
X99382D01*
X100651Y8230D02*
X100905Y7976D01*
X101413D01*
X101667Y8230D01*
Y9245D01*
X101413Y9499D01*
X100905D01*
X100651Y9245D01*
Y8991D01*
X100905Y8737D01*
X101667D01*
X103191Y9499D02*
X102175D01*
Y8737D01*
X102683Y8991D01*
X102937D01*
X103191Y8737D01*
Y8230D01*
X102937Y7976D01*
X102429D01*
X102175Y8230D01*
X103698Y7976D02*
Y8991D01*
X103952D01*
X104206Y8737D01*
Y7976D01*
Y8737D01*
X104460Y8991D01*
X104714Y8737D01*
Y7976D01*
X105222D02*
Y8991D01*
X105476D01*
X105730Y8737D01*
Y7976D01*
Y8737D01*
X105984Y8991D01*
X106238Y8737D01*
Y7976D01*
X108777D02*
X108269Y8483D01*
Y8991D01*
X108777Y9499D01*
X109539Y9245D02*
X109792Y9499D01*
X110300D01*
X110554Y9245D01*
Y8991D01*
X110300Y8737D01*
X110046D01*
X110300D01*
X110554Y8483D01*
Y8230D01*
X110300Y7976D01*
X109792D01*
X109539Y8230D01*
X111062Y9499D02*
X112078D01*
Y9245D01*
X111062Y8230D01*
Y7976D01*
X112586D02*
Y8230D01*
X112839D01*
Y7976D01*
X112586D01*
X114617D02*
Y9499D01*
X113855Y8737D01*
X114871D01*
X115379Y9245D02*
X115633Y9499D01*
X116140D01*
X116394Y9245D01*
Y8230D01*
X116140Y7976D01*
X115633D01*
X115379Y8230D01*
Y9245D01*
X117918Y7976D02*
X116902D01*
X117918Y8991D01*
Y9245D01*
X117664Y9499D01*
X117156D01*
X116902Y9245D01*
X118426Y7976D02*
Y8991D01*
X118680D01*
X118933Y8737D01*
Y7976D01*
Y8737D01*
X119187Y8991D01*
X119441Y8737D01*
Y7976D01*
X119949D02*
X120457D01*
X120203D01*
Y8991D01*
X119949D01*
X121219Y7976D02*
X121727D01*
X121473D01*
Y9499D01*
X121219D01*
X122488Y7976D02*
X122996Y8483D01*
Y8991D01*
X122488Y9499D01*
X131986Y7976D02*
Y9499D01*
X132748D01*
X133002Y9245D01*
Y8737D01*
X132748Y8483D01*
X131986D01*
X133509Y9499D02*
X134525D01*
X134017D01*
Y7976D01*
X135033Y9499D02*
Y7976D01*
Y8737D01*
X136049D01*
Y9499D01*
Y7976D01*
X144784D02*
Y9499D01*
X145546D01*
X145800Y9245D01*
Y8737D01*
X145546Y8483D01*
X144784D01*
X145292D02*
X145800Y7976D01*
X146562D02*
X147070D01*
X147323Y8230D01*
Y8737D01*
X147070Y8991D01*
X146562D01*
X146308Y8737D01*
Y8230D01*
X146562Y7976D01*
X147831Y8991D02*
Y8230D01*
X148085Y7976D01*
X148847D01*
Y8991D01*
X149355Y7976D02*
Y8991D01*
X150117D01*
X150370Y8737D01*
Y7976D01*
X151894Y9499D02*
Y7976D01*
X151132D01*
X150878Y8230D01*
Y8737D01*
X151132Y8991D01*
X151894D01*
X80185Y6197D02*
X80439Y6451D01*
X80946D01*
X81200Y6197D01*
Y5943D01*
X80946Y5689D01*
X80692D01*
X80946D01*
X81200Y5435D01*
Y5182D01*
X80946Y4928D01*
X80439D01*
X80185Y5182D01*
X97858Y4928D02*
X98366D01*
X98112D01*
Y6451D01*
X97858Y6197D01*
X99128Y4928D02*
Y5182D01*
X99382D01*
Y4928D01*
X99128D01*
X101413D02*
X100397D01*
X101413Y5943D01*
Y6197D01*
X101159Y6451D01*
X100651D01*
X100397Y6197D01*
X101921Y4928D02*
Y5943D01*
X102175D01*
X102429Y5689D01*
Y4928D01*
Y5689D01*
X102683Y5943D01*
X102937Y5689D01*
Y4928D01*
X103445D02*
Y5943D01*
X103698D01*
X103952Y5689D01*
Y4928D01*
Y5689D01*
X104206Y5943D01*
X104460Y5689D01*
Y4928D01*
X106999D02*
X106492Y5435D01*
Y5943D01*
X106999Y6451D01*
X108523Y4928D02*
Y6451D01*
X107761Y5689D01*
X108777D01*
X109285Y6451D02*
X110300D01*
Y6197D01*
X109285Y5182D01*
Y4928D01*
X110808D02*
Y5182D01*
X111062D01*
Y4928D01*
X110808D01*
X113093D02*
X112078D01*
X113093Y5943D01*
Y6197D01*
X112839Y6451D01*
X112332D01*
X112078Y6197D01*
X114363Y4928D02*
Y6451D01*
X113601Y5689D01*
X114617D01*
X115886Y4928D02*
Y6451D01*
X115125Y5689D01*
X116140D01*
X116648Y4928D02*
Y5943D01*
X116902D01*
X117156Y5689D01*
Y4928D01*
Y5689D01*
X117410Y5943D01*
X117664Y5689D01*
Y4928D01*
X118172D02*
X118680D01*
X118426D01*
Y5943D01*
X118172D01*
X119441Y4928D02*
X119949D01*
X119695D01*
Y6451D01*
X119441D01*
X120711Y4928D02*
X121219Y5435D01*
Y5943D01*
X120711Y6451D01*
X131986Y4928D02*
Y6451D01*
X132748D01*
X133002Y6197D01*
Y5689D01*
X132748Y5435D01*
X131986D01*
X133509Y6451D02*
X134525D01*
X134017D01*
Y4928D01*
X135033Y6451D02*
Y4928D01*
Y5689D01*
X136049D01*
Y6451D01*
Y4928D01*
X144784D02*
Y6451D01*
X145546D01*
X145800Y6197D01*
Y5689D01*
X145546Y5435D01*
X144784D01*
X145292D02*
X145800Y4928D01*
X146562D02*
X147070D01*
X147323Y5182D01*
Y5689D01*
X147070Y5943D01*
X146562D01*
X146308Y5689D01*
Y5182D01*
X146562Y4928D01*
X147831Y5943D02*
Y5182D01*
X148085Y4928D01*
X148847D01*
Y5943D01*
X149355Y4928D02*
Y5943D01*
X150117D01*
X150370Y5689D01*
Y4928D01*
X151894Y6451D02*
Y4928D01*
X151132D01*
X150878Y5182D01*
Y5689D01*
X151132Y5943D01*
X151894D01*
X80946Y1880D02*
Y3403D01*
X80185Y2641D01*
X81200D01*
X97858Y3149D02*
X98112Y3403D01*
X98620D01*
X98874Y3149D01*
Y2895D01*
X98620Y2641D01*
X98366D01*
X98620D01*
X98874Y2387D01*
Y2134D01*
X98620Y1880D01*
X98112D01*
X97858Y2134D01*
X99382Y1880D02*
Y2134D01*
X99636D01*
Y1880D01*
X99382D01*
X100651Y3149D02*
X100905Y3403D01*
X101413D01*
X101667Y3149D01*
Y2134D01*
X101413Y1880D01*
X100905D01*
X100651Y2134D01*
Y3149D01*
X102937Y1880D02*
Y3403D01*
X102175Y2641D01*
X103191D01*
X103698Y3149D02*
X103952Y3403D01*
X104460D01*
X104714Y3149D01*
Y2895D01*
X104460Y2641D01*
X104714Y2387D01*
Y2134D01*
X104460Y1880D01*
X103952D01*
X103698Y2134D01*
Y2387D01*
X103952Y2641D01*
X103698Y2895D01*
Y3149D01*
X103952Y2641D02*
X104460D01*
X105222Y1880D02*
Y2895D01*
X105476D01*
X105730Y2641D01*
Y1880D01*
Y2641D01*
X105984Y2895D01*
X106238Y2641D01*
Y1880D01*
X106745D02*
Y2895D01*
X106999D01*
X107253Y2641D01*
Y1880D01*
Y2641D01*
X107507Y2895D01*
X107761Y2641D01*
Y1880D01*
X110300D02*
X109792Y2387D01*
Y2895D01*
X110300Y3403D01*
X111062Y1880D02*
X111570D01*
X111316D01*
Y3403D01*
X111062Y3149D01*
X113347Y1880D02*
X112332D01*
X113347Y2895D01*
Y3149D01*
X113093Y3403D01*
X112586D01*
X112332Y3149D01*
X113855D02*
X114109Y3403D01*
X114617D01*
X114871Y3149D01*
Y2134D01*
X114617Y1880D01*
X114109D01*
X113855Y2134D01*
Y3149D01*
X115379Y1880D02*
Y2895D01*
X115633D01*
X115886Y2641D01*
Y1880D01*
Y2641D01*
X116140Y2895D01*
X116394Y2641D01*
Y1880D01*
X116902D02*
X117410D01*
X117156D01*
Y2895D01*
X116902D01*
X118172Y1880D02*
X118680D01*
X118426D01*
Y3403D01*
X118172D01*
X119441Y1880D02*
X119949Y2387D01*
Y2895D01*
X119441Y3403D01*
X131986Y1880D02*
Y3403D01*
X132748D01*
X133002Y3149D01*
Y2641D01*
X132748Y2387D01*
X131986D01*
X133509Y3403D02*
X134525D01*
X134017D01*
Y1880D01*
X135033Y3403D02*
Y1880D01*
Y2641D01*
X136049D01*
Y3403D01*
Y1880D01*
X144784D02*
Y3403D01*
X145546D01*
X145800Y3149D01*
Y2641D01*
X145546Y2387D01*
X144784D01*
X145292D02*
X145800Y1880D01*
X146562D02*
X147070D01*
X147323Y2134D01*
Y2641D01*
X147070Y2895D01*
X146562D01*
X146308Y2641D01*
Y2134D01*
X146562Y1880D01*
X147831Y2895D02*
Y2134D01*
X148085Y1880D01*
X148847D01*
Y2895D01*
X149355Y1880D02*
Y2895D01*
X150117D01*
X150370Y2641D01*
Y1880D01*
X151894Y3403D02*
Y1880D01*
X151132D01*
X150878Y2134D01*
Y2641D01*
X151132Y2895D01*
X151894D01*
X80185Y101D02*
X80439Y355D01*
X80946D01*
X81200Y101D01*
Y-153D01*
X80946Y-407D01*
X80692D01*
X80946D01*
X81200Y-661D01*
Y-914D01*
X80946Y-1168D01*
X80439D01*
X80185Y-914D01*
X97858Y101D02*
X98112Y355D01*
X98620D01*
X98874Y101D01*
Y-914D01*
X98620Y-1168D01*
X98112D01*
X97858Y-914D01*
Y101D01*
X99382Y-1168D02*
Y-914D01*
X99636D01*
Y-1168D01*
X99382D01*
X101667Y355D02*
X100651D01*
Y-407D01*
X101159Y-153D01*
X101413D01*
X101667Y-407D01*
Y-914D01*
X101413Y-1168D01*
X100905D01*
X100651Y-914D01*
X102175Y-1168D02*
Y-153D01*
X102429D01*
X102683Y-407D01*
Y-1168D01*
Y-407D01*
X102937Y-153D01*
X103191Y-407D01*
Y-1168D01*
X103698D02*
Y-153D01*
X103952D01*
X104206Y-407D01*
Y-1168D01*
Y-407D01*
X104460Y-153D01*
X104714Y-407D01*
Y-1168D01*
X107253D02*
X106745Y-661D01*
Y-153D01*
X107253Y355D01*
X108015Y-1168D02*
X108523D01*
X108269D01*
Y355D01*
X108015Y101D01*
X109285Y-914D02*
X109539Y-1168D01*
X110046D01*
X110300Y-914D01*
Y101D01*
X110046Y355D01*
X109539D01*
X109285Y101D01*
Y-153D01*
X109539Y-407D01*
X110300D01*
X110808Y-1168D02*
Y-914D01*
X111062D01*
Y-1168D01*
X110808D01*
X113093Y355D02*
X112586Y101D01*
X112078Y-407D01*
Y-914D01*
X112332Y-1168D01*
X112839D01*
X113093Y-914D01*
Y-661D01*
X112839Y-407D01*
X112078D01*
X113601Y101D02*
X113855Y355D01*
X114363D01*
X114617Y101D01*
Y-153D01*
X114363Y-407D01*
X114617Y-661D01*
Y-914D01*
X114363Y-1168D01*
X113855D01*
X113601Y-914D01*
Y-661D01*
X113855Y-407D01*
X113601Y-153D01*
Y101D01*
X113855Y-407D02*
X114363D01*
X116140Y355D02*
X115125D01*
Y-407D01*
X115633Y-153D01*
X115886D01*
X116140Y-407D01*
Y-914D01*
X115886Y-1168D01*
X115379D01*
X115125Y-914D01*
X116648Y-1168D02*
Y-153D01*
X116902D01*
X117156Y-407D01*
Y-1168D01*
Y-407D01*
X117410Y-153D01*
X117664Y-407D01*
Y-1168D01*
X118172D02*
X118680D01*
X118426D01*
Y-153D01*
X118172D01*
X119441Y-1168D02*
X119949D01*
X119695D01*
Y355D01*
X119441D01*
X120711Y-1168D02*
X121219Y-661D01*
Y-153D01*
X120711Y355D01*
X131986Y-1168D02*
Y355D01*
X132748D01*
X133002Y101D01*
Y-407D01*
X132748Y-661D01*
X131986D01*
X133509Y355D02*
X134525D01*
X134017D01*
Y-1168D01*
X135033Y355D02*
Y-1168D01*
Y-407D01*
X136049D01*
Y355D01*
Y-1168D01*
X145800Y101D02*
X145546Y355D01*
X145038D01*
X144784Y101D01*
Y-153D01*
X145038Y-407D01*
X145546D01*
X145800Y-661D01*
Y-914D01*
X145546Y-1168D01*
X145038D01*
X144784Y-914D01*
X147323Y-1676D02*
Y-153D01*
X146562D01*
X146308Y-407D01*
Y-914D01*
X146562Y-1168D01*
X147323D01*
X147831Y-153D02*
Y-914D01*
X148085Y-1168D01*
X148847D01*
Y-153D01*
X149609D02*
X150117D01*
X150370Y-407D01*
Y-1168D01*
X149609D01*
X149355Y-914D01*
X149609Y-661D01*
X150370D01*
X150878Y-153D02*
Y-1168D01*
Y-661D01*
X151132Y-407D01*
X151386Y-153D01*
X151640D01*
X153164Y-1168D02*
X152656D01*
X152402Y-914D01*
Y-407D01*
X152656Y-153D01*
X153164D01*
X153417Y-407D01*
Y-661D01*
X152402D01*
X80185Y-2947D02*
X80439Y-2693D01*
X80946D01*
X81200Y-2947D01*
Y-3201D01*
X80946Y-3455D01*
X80692D01*
X80946D01*
X81200Y-3709D01*
Y-3962D01*
X80946Y-4216D01*
X80439D01*
X80185Y-3962D01*
X81708Y-2947D02*
X81962Y-2693D01*
X82470D01*
X82724Y-2947D01*
Y-3962D01*
X82470Y-4216D01*
X81962D01*
X81708Y-3962D01*
Y-2947D01*
X83232Y-4216D02*
X83739D01*
X83486D01*
Y-2693D01*
X83232Y-2947D01*
X86483Y-2693D02*
X87498D01*
X86991D01*
Y-4216D01*
X88260D02*
X88768D01*
X89022Y-3962D01*
Y-3455D01*
X88768Y-3201D01*
X88260D01*
X88006Y-3455D01*
Y-3962D01*
X88260Y-4216D01*
X89784Y-2947D02*
Y-3201D01*
X89530D01*
X90038D01*
X89784D01*
Y-3962D01*
X90038Y-4216D01*
X91053Y-3201D02*
X91561D01*
X91815Y-3455D01*
Y-4216D01*
X91053D01*
X90799Y-3962D01*
X91053Y-3709D01*
X91815D01*
X92323Y-4216D02*
X92831D01*
X92577D01*
Y-2693D01*
X92323D01*
D118*
X44983Y40665D02*
Y41072D01*
X45390D01*
Y40665D01*
X44983D01*
X45466Y34392D02*
Y34798D01*
X45872D01*
Y34392D01*
X45466D01*
X45288Y38659D02*
Y39065D01*
X45695D01*
Y38659D01*
X45288D01*
X45822Y32029D02*
Y32436D01*
X46228D01*
Y32029D01*
X45822D01*
X80975Y38303D02*
Y38710D01*
X81382D01*
Y38303D01*
X80975D01*
X79731Y40208D02*
Y40615D01*
X80137D01*
Y40208D01*
X79731D01*
X76429Y21184D02*
Y21590D01*
X76835D01*
Y21184D01*
X76429D01*
X62128Y36246D02*
Y36652D01*
X62535D01*
Y36246D01*
X62128D01*
X14707Y64084D02*
Y64491D01*
X15113D01*
Y64084D01*
X14707D01*
X11449Y28842D02*
X11246Y29249D01*
X11652D01*
X11449Y28842D01*
X9449D02*
X9246Y29249D01*
X9652D01*
X9449Y28842D01*
X11449Y30842D02*
X11246Y31249D01*
X11652D01*
X11449Y30842D01*
X9449D02*
X9246Y31249D01*
X9652D01*
X9449Y30842D01*
X11449Y32842D02*
X11246Y33249D01*
X11652D01*
X11449Y32842D01*
X9449D02*
X9246Y33249D01*
X9652D01*
X9449Y32842D01*
X11449Y34842D02*
X11246Y35249D01*
X11652D01*
X11449Y34842D01*
X9449D02*
X9246Y35249D01*
X9652D01*
X9449Y34842D01*
X11449Y36842D02*
X11246Y37249D01*
X11652D01*
X11449Y36842D01*
X9449D02*
X9246Y37249D01*
X9652D01*
X9449Y36842D01*
X6159Y39767D02*
X5956Y40174D01*
X6362D01*
X6159Y39767D01*
X3899D02*
X3696Y40174D01*
X4102D01*
X3899Y39767D01*
X6159Y25917D02*
X5956Y26324D01*
X6362D01*
X6159Y25917D01*
X3899D02*
X3696Y26324D01*
X4102D01*
X3899Y25917D01*
X19126Y26797D02*
X19228Y26899D01*
X19329D01*
X19228Y27000D01*
X19329Y27102D01*
X19228D01*
X19126Y27203D01*
X19025Y27102D01*
X18923D01*
X19025Y27000D01*
X18923Y26899D01*
X19025D01*
X19126Y26797D01*
X20396D02*
X20498Y26899D01*
X20599D01*
X20498Y27000D01*
X20599Y27102D01*
X20498D01*
X20396Y27203D01*
X20295Y27102D01*
X20193D01*
X20295Y27000D01*
X20193Y26899D01*
X20295D01*
X20396Y26797D01*
X21666D02*
X21768Y26899D01*
X21869D01*
X21768Y27000D01*
X21869Y27102D01*
X21768D01*
X21666Y27203D01*
X21565Y27102D01*
X21463D01*
X21565Y27000D01*
X21463Y26899D01*
X21565D01*
X21666Y26797D01*
X19126Y31369D02*
X19228Y31471D01*
X19329D01*
X19228Y31572D01*
X19329Y31674D01*
X19228D01*
X19126Y31775D01*
X19025Y31674D01*
X18923D01*
X19025Y31572D01*
X18923Y31471D01*
X19025D01*
X19126Y31369D01*
X20396D02*
X20498Y31471D01*
X20599D01*
X20498Y31572D01*
X20599Y31674D01*
X20498D01*
X20396Y31775D01*
X20295Y31674D01*
X20193D01*
X20295Y31572D01*
X20193Y31471D01*
X20295D01*
X20396Y31369D01*
X21666D02*
X21768Y31471D01*
X21869D01*
X21768Y31572D01*
X21869Y31674D01*
X21768D01*
X21666Y31775D01*
X21565Y31674D01*
X21463D01*
X21565Y31572D01*
X21463Y31471D01*
X21565D01*
X21666Y31369D01*
X19075Y35839D02*
X19177Y35941D01*
X19279D01*
X19177Y36043D01*
X19279Y36144D01*
X19177D01*
X19075Y36246D01*
X18974Y36144D01*
X18872D01*
X18974Y36043D01*
X18872Y35941D01*
X18974D01*
X19075Y35839D01*
X20345D02*
X20447Y35941D01*
X20549D01*
X20447Y36043D01*
X20549Y36144D01*
X20447D01*
X20345Y36246D01*
X20244Y36144D01*
X20142D01*
X20244Y36043D01*
X20142Y35941D01*
X20244D01*
X20345Y35839D01*
X21615D02*
X21717Y35941D01*
X21819D01*
X21717Y36043D01*
X21819Y36144D01*
X21717D01*
X21615Y36246D01*
X21514Y36144D01*
X21412D01*
X21514Y36043D01*
X21412Y35941D01*
X21514D01*
X21615Y35839D01*
X19075Y40386D02*
X19177Y40488D01*
X19279D01*
X19177Y40589D01*
X19279Y40691D01*
X19177D01*
X19075Y40792D01*
X18974Y40691D01*
X18872D01*
X18974Y40589D01*
X18872Y40488D01*
X18974D01*
X19075Y40386D01*
X20345D02*
X20447Y40488D01*
X20549D01*
X20447Y40589D01*
X20549Y40691D01*
X20447D01*
X20345Y40792D01*
X20244Y40691D01*
X20142D01*
X20244Y40589D01*
X20142Y40488D01*
X20244D01*
X20345Y40386D01*
X21615D02*
X21717Y40488D01*
X21819D01*
X21717Y40589D01*
X21819Y40691D01*
X21717D01*
X21615Y40792D01*
X21514Y40691D01*
X21412D01*
X21514Y40589D01*
X21412Y40488D01*
X21514D01*
X21615Y40386D01*
X34671Y32360D02*
X34468Y32766D01*
X34874D01*
X34671Y32360D01*
Y24740D02*
X34468Y25146D01*
X34874D01*
X34671Y24740D01*
X36347Y44196D02*
X36144Y44602D01*
X36551D01*
X36347Y44196D01*
Y36576D02*
X36144Y36982D01*
X36551D01*
X36347Y36576D01*
X39167Y46279D02*
X38964Y46685D01*
X39370D01*
X39167Y46279D01*
Y38659D02*
X38964Y39065D01*
X39370D01*
X39167Y38659D01*
X39192Y24359D02*
X38989Y24765D01*
X39395D01*
X39192Y24359D01*
Y31979D02*
X38989Y32385D01*
X39395D01*
X39192Y31979D01*
X25527Y38227D02*
X25324Y38633D01*
X25730D01*
X25527Y38227D01*
X33147D02*
X32944Y38633D01*
X33350D01*
X33147Y38227D01*
X24003Y33528D02*
X23800Y33934D01*
X24206D01*
X24003Y33528D01*
X31623D02*
X31420Y33934D01*
X31826D01*
X31623Y33528D01*
X24028Y29159D02*
X23825Y29566D01*
X24232D01*
X24028Y29159D01*
X31648D02*
X31445Y29566D01*
X31852D01*
X31648Y29159D01*
X23978Y24511D02*
X23774Y24917D01*
X24181D01*
X23978Y24511D01*
X31598D02*
X31394Y24917D01*
X31801D01*
X31598Y24511D01*
X83922Y24359D02*
X84023Y24460D01*
X84125D01*
X84023Y24562D01*
X84125Y24663D01*
X84023D01*
X83922Y24765D01*
X83820Y24663D01*
X83718D01*
X83820Y24562D01*
X83718Y24460D01*
X83820D01*
X83922Y24359D01*
X85192D02*
X85293Y24460D01*
X85395D01*
X85293Y24562D01*
X85395Y24663D01*
X85293D01*
X85192Y24765D01*
X85090Y24663D01*
X84988D01*
X85090Y24562D01*
X84988Y24460D01*
X85090D01*
X85192Y24359D01*
X86462D02*
X86563Y24460D01*
X86665D01*
X86563Y24562D01*
X86665Y24663D01*
X86563D01*
X86462Y24765D01*
X86360Y24663D01*
X86258D01*
X86360Y24562D01*
X86258Y24460D01*
X86360D01*
X86462Y24359D01*
X86589Y20422D02*
X86385Y20828D01*
X86792D01*
X86589Y20422D01*
X78969D02*
X78765Y20828D01*
X79172D01*
X78969Y20422D01*
X79146Y17196D02*
X78943Y17602D01*
X79350D01*
X79146Y17196D01*
X86766D02*
X86563Y17602D01*
X86970D01*
X86766Y17196D01*
X79070Y14249D02*
X78867Y14656D01*
X79273D01*
X79070Y14249D01*
X86690D02*
X86487Y14656D01*
X86893D01*
X86690Y14249D01*
X63398Y43536D02*
Y43942D01*
X63805D01*
Y43536D01*
X63398D01*
X17145Y61468D02*
X17247Y61671D01*
X17145Y61874D01*
X17348Y61773D01*
X17551Y61874D01*
X17450Y61671D01*
X17551Y61468D01*
X17348Y61570D01*
X17145Y61468D01*
X14605D02*
X14707Y61671D01*
X14605Y61874D01*
X14808Y61773D01*
X15011Y61874D01*
X14910Y61671D01*
X15011Y61468D01*
X14808Y61570D01*
X14605Y61468D01*
X66878Y40005D02*
X66980Y40208D01*
X66878Y40411D01*
X67081Y40310D01*
X67285Y40411D01*
X67183Y40208D01*
X67285Y40005D01*
X67081Y40107D01*
X66878Y40005D01*
X64338D02*
X64440Y40208D01*
X64338Y40411D01*
X64541Y40310D01*
X64745Y40411D01*
X64643Y40208D01*
X64745Y40005D01*
X64541Y40107D01*
X64338Y40005D01*
X70917Y79959D02*
X71018Y80162D01*
X70917Y80366D01*
X71120Y80264D01*
X71323Y80366D01*
X71222Y80162D01*
X71323Y79959D01*
X71120Y80061D01*
X70917Y79959D01*
X68377D02*
X68478Y80162D01*
X68377Y80366D01*
X68580Y80264D01*
X68783Y80366D01*
X68682Y80162D01*
X68783Y79959D01*
X68580Y80061D01*
X68377Y79959D01*
X43866Y74346D02*
X43967Y74549D01*
X43866Y74752D01*
X44069Y74651D01*
X44272Y74752D01*
X44171Y74549D01*
X44272Y74346D01*
X44069Y74447D01*
X43866Y74346D01*
Y76886D02*
X43967Y77089D01*
X43866Y77292D01*
X44069Y77191D01*
X44272Y77292D01*
X44171Y77089D01*
X44272Y76886D01*
X44069Y76987D01*
X43866Y76886D01*
X79553Y86284D02*
X79654Y86487D01*
X79553Y86690D01*
X79756Y86589D01*
X79959Y86690D01*
X79858Y86487D01*
X79959Y86284D01*
X79756Y86385D01*
X79553Y86284D01*
Y83744D02*
X79654Y83947D01*
X79553Y84150D01*
X79756Y84049D01*
X79959Y84150D01*
X79858Y83947D01*
X79959Y83744D01*
X79756Y83845D01*
X79553Y83744D01*
X33909Y12827D02*
X34011Y13030D01*
X33909Y13233D01*
X34112Y13132D01*
X34315Y13233D01*
X34214Y13030D01*
X34315Y12827D01*
X34112Y12929D01*
X33909Y12827D01*
Y15367D02*
X34011Y15570D01*
X33909Y15773D01*
X34112Y15672D01*
X34315Y15773D01*
X34214Y15570D01*
X34315Y15367D01*
X34112Y15469D01*
X33909Y15367D01*
X66169Y13082D02*
Y12980D01*
X66372D01*
Y13082D01*
X66473D01*
Y13285D01*
X66372D01*
Y13387D01*
X66169D01*
Y13285D01*
X66067D01*
Y13082D01*
X66169D01*
X76429D02*
Y12980D01*
X76632D01*
Y13082D01*
X76733D01*
Y13285D01*
X76632D01*
Y13387D01*
X76429D01*
Y13285D01*
X76327D01*
Y13082D01*
X76429D01*
X71299D02*
Y12980D01*
X71502D01*
Y13082D01*
X71603D01*
Y13285D01*
X71502D01*
Y13387D01*
X71299D01*
Y13285D01*
X71197D01*
Y13082D01*
X71299D01*
X83064Y32055D02*
X83166D01*
X83267Y32157D01*
X83369Y32055D01*
X83471D01*
Y32157D01*
X83369Y32259D01*
X83471Y32360D01*
Y32462D01*
X83369D01*
X83267Y32360D01*
X83166Y32462D01*
X83064D01*
Y32360D01*
X83166Y32259D01*
X83064Y32157D01*
Y32055D01*
Y37055D02*
X83166D01*
X83267Y37157D01*
X83369Y37055D01*
X83471D01*
Y37157D01*
X83369Y37259D01*
X83471Y37360D01*
Y37462D01*
X83369D01*
X83267Y37360D01*
X83166Y37462D01*
X83064D01*
Y37360D01*
X83166Y37259D01*
X83064Y37157D01*
Y37055D01*
Y34555D02*
X83166D01*
X83267Y34657D01*
X83369Y34555D01*
X83471D01*
Y34657D01*
X83369Y34759D01*
X83471Y34860D01*
Y34962D01*
X83369D01*
X83267Y34860D01*
X83166Y34962D01*
X83064D01*
Y34860D01*
X83166Y34759D01*
X83064Y34657D01*
Y34555D01*
Y30805D02*
X83166D01*
X83267Y30907D01*
X83369Y30805D01*
X83471D01*
Y30907D01*
X83369Y31009D01*
X83471Y31110D01*
Y31212D01*
X83369D01*
X83267Y31110D01*
X83166Y31212D01*
X83064D01*
Y31110D01*
X83166Y31009D01*
X83064Y30907D01*
Y30805D01*
Y35805D02*
X83166D01*
X83267Y35907D01*
X83369Y35805D01*
X83471D01*
Y35907D01*
X83369Y36009D01*
X83471Y36110D01*
Y36212D01*
X83369D01*
X83267Y36110D01*
X83166Y36212D01*
X83064D01*
Y36110D01*
X83166Y36009D01*
X83064Y35907D01*
Y35805D01*
Y33305D02*
X83166D01*
X83267Y33407D01*
X83369Y33305D01*
X83471D01*
Y33407D01*
X83369Y33509D01*
X83471Y33610D01*
Y33712D01*
X83369D01*
X83267Y33610D01*
X83166Y33712D01*
X83064D01*
Y33610D01*
X83166Y33509D01*
X83064Y33407D01*
Y33305D01*
X83388Y54020D02*
X83591Y54223D01*
X83795Y54020D01*
X83591Y53817D01*
X83388Y54020D01*
Y55275D02*
X83591Y55478D01*
X83795Y55275D01*
X83591Y55072D01*
X83388Y55275D01*
X55550Y9754D02*
Y10160D01*
X55956D01*
Y9754D01*
X55550D01*
X55651Y9855D02*
Y10058D01*
X55855D01*
Y9855D01*
X55651D01*
X55550Y15804D02*
Y16210D01*
X55956D01*
Y15804D01*
X55550D01*
X55651Y15905D02*
Y16108D01*
X55855D01*
Y15905D01*
X55651D01*
X60250Y12804D02*
Y13210D01*
X60656D01*
Y12804D01*
X60250D01*
X60351Y12905D02*
Y13108D01*
X60555D01*
Y12905D01*
X60351D01*
X14529Y57658D02*
X14630Y57861D01*
X14529Y58064D01*
X14732Y57963D01*
X14935Y58064D01*
X14834Y57861D01*
X14935Y57658D01*
X14732Y57760D01*
X14529Y57658D01*
X17069D02*
X17170Y57861D01*
X17069Y58064D01*
X17272Y57963D01*
X17475Y58064D01*
X17374Y57861D01*
X17475Y57658D01*
X17272Y57760D01*
X17069Y57658D01*
X14326Y67056D02*
X14427Y67259D01*
X14326Y67462D01*
X14529Y67361D01*
X14732Y67462D01*
X14630Y67259D01*
X14732Y67056D01*
X14529Y67158D01*
X14326Y67056D01*
X16866D02*
X16967Y67259D01*
X16866Y67462D01*
X17069Y67361D01*
X17272Y67462D01*
X17170Y67259D01*
X17272Y67056D01*
X17069Y67158D01*
X16866Y67056D01*
X80950Y49708D02*
X81051Y49911D01*
X80950Y50114D01*
X81153Y50013D01*
X81356Y50114D01*
X81255Y49911D01*
X81356Y49708D01*
X81153Y49809D01*
X80950Y49708D01*
Y47168D02*
X81051Y47371D01*
X80950Y47574D01*
X81153Y47473D01*
X81356Y47574D01*
X81255Y47371D01*
X81356Y47168D01*
X81153Y47269D01*
X80950Y47168D01*
X34849Y71755D02*
X34950Y71958D01*
X34849Y72161D01*
X35052Y72060D01*
X35255Y72161D01*
X35154Y71958D01*
X35255Y71755D01*
X35052Y71857D01*
X34849Y71755D01*
Y69215D02*
X34950Y69418D01*
X34849Y69621D01*
X35052Y69520D01*
X35255Y69621D01*
X35154Y69418D01*
X35255Y69215D01*
X35052Y69317D01*
X34849Y69215D01*
X12421Y91161D02*
X12217Y91567D01*
X12624D01*
X12421Y91161D01*
Y91262D02*
X12319Y91465D01*
X12522D01*
X12421Y91262D01*
Y88621D02*
X12217Y89027D01*
X12624D01*
X12421Y88621D01*
Y88722D02*
X12319Y88925D01*
X12522D01*
X12421Y88722D01*
Y86081D02*
X12217Y86487D01*
X12624D01*
X12421Y86081D01*
Y86182D02*
X12319Y86385D01*
X12522D01*
X12421Y86182D01*
Y83541D02*
X12217Y83947D01*
X12624D01*
X12421Y83541D01*
Y83642D02*
X12319Y83845D01*
X12522D01*
X12421Y83642D01*
X14961Y91161D02*
X14757Y91567D01*
X15164D01*
X14961Y91161D01*
Y91262D02*
X14859Y91465D01*
X15062D01*
X14961Y91262D01*
Y88621D02*
X14757Y89027D01*
X15164D01*
X14961Y88621D01*
Y88722D02*
X14859Y88925D01*
X15062D01*
X14961Y88722D01*
Y86081D02*
X14757Y86487D01*
X15164D01*
X14961Y86081D01*
Y86182D02*
X14859Y86385D01*
X15062D01*
X14961Y86182D01*
Y83541D02*
X14757Y83947D01*
X15164D01*
X14961Y83541D01*
Y83642D02*
X14859Y83845D01*
X15062D01*
X14961Y83642D01*
X17501Y91161D02*
X17297Y91567D01*
X17704D01*
X17501Y91161D01*
Y91262D02*
X17399Y91465D01*
X17602D01*
X17501Y91262D01*
Y88621D02*
X17297Y89027D01*
X17704D01*
X17501Y88621D01*
Y88722D02*
X17399Y88925D01*
X17602D01*
X17501Y88722D01*
Y86081D02*
X17297Y86487D01*
X17704D01*
X17501Y86081D01*
Y86182D02*
X17399Y86385D01*
X17602D01*
X17501Y86182D01*
Y83541D02*
X17297Y83947D01*
X17704D01*
X17501Y83541D01*
Y83642D02*
X17399Y83845D01*
X17602D01*
X17501Y83642D01*
X20041Y91161D02*
X19837Y91567D01*
X20244D01*
X20041Y91161D01*
Y91262D02*
X19939Y91465D01*
X20142D01*
X20041Y91262D01*
Y88621D02*
X19837Y89027D01*
X20244D01*
X20041Y88621D01*
Y88722D02*
X19939Y88925D01*
X20142D01*
X20041Y88722D01*
Y86081D02*
X19837Y86487D01*
X20244D01*
X20041Y86081D01*
Y86182D02*
X19939Y86385D01*
X20142D01*
X20041Y86182D01*
Y83541D02*
X19837Y83947D01*
X20244D01*
X20041Y83541D01*
Y83642D02*
X19939Y83845D01*
X20142D01*
X20041Y83642D01*
X22581Y91161D02*
X22377Y91567D01*
X22784D01*
X22581Y91161D01*
Y91262D02*
X22479Y91465D01*
X22682D01*
X22581Y91262D01*
Y88621D02*
X22377Y89027D01*
X22784D01*
X22581Y88621D01*
Y88722D02*
X22479Y88925D01*
X22682D01*
X22581Y88722D01*
Y86081D02*
X22377Y86487D01*
X22784D01*
X22581Y86081D01*
Y86182D02*
X22479Y86385D01*
X22682D01*
X22581Y86182D01*
Y83541D02*
X22377Y83947D01*
X22784D01*
X22581Y83541D01*
Y83642D02*
X22479Y83845D01*
X22682D01*
X22581Y83642D01*
X25121Y91161D02*
X24917Y91567D01*
X25324D01*
X25121Y91161D01*
Y91262D02*
X25019Y91465D01*
X25222D01*
X25121Y91262D01*
Y88621D02*
X24917Y89027D01*
X25324D01*
X25121Y88621D01*
Y88722D02*
X25019Y88925D01*
X25222D01*
X25121Y88722D01*
Y86081D02*
X24917Y86487D01*
X25324D01*
X25121Y86081D01*
Y86182D02*
X25019Y86385D01*
X25222D01*
X25121Y86182D01*
Y83541D02*
X24917Y83947D01*
X25324D01*
X25121Y83541D01*
Y83642D02*
X25019Y83845D01*
X25222D01*
X25121Y83642D01*
X27661Y91161D02*
X27457Y91567D01*
X27864D01*
X27661Y91161D01*
Y91262D02*
X27559Y91465D01*
X27762D01*
X27661Y91262D01*
Y88621D02*
X27457Y89027D01*
X27864D01*
X27661Y88621D01*
Y88722D02*
X27559Y88925D01*
X27762D01*
X27661Y88722D01*
Y86081D02*
X27457Y86487D01*
X27864D01*
X27661Y86081D01*
Y86182D02*
X27559Y86385D01*
X27762D01*
X27661Y86182D01*
Y83541D02*
X27457Y83947D01*
X27864D01*
X27661Y83541D01*
Y83642D02*
X27559Y83845D01*
X27762D01*
X27661Y83642D01*
X30201Y91161D02*
X29997Y91567D01*
X30404D01*
X30201Y91161D01*
Y91262D02*
X30099Y91465D01*
X30302D01*
X30201Y91262D01*
Y88621D02*
X29997Y89027D01*
X30404D01*
X30201Y88621D01*
Y88722D02*
X30099Y88925D01*
X30302D01*
X30201Y88722D01*
Y86081D02*
X29997Y86487D01*
X30404D01*
X30201Y86081D01*
Y86182D02*
X30099Y86385D01*
X30302D01*
X30201Y86182D01*
Y83541D02*
X29997Y83947D01*
X30404D01*
X30201Y83541D01*
Y83642D02*
X30099Y83845D01*
X30302D01*
X30201Y83642D01*
X32741Y91161D02*
X32537Y91567D01*
X32944D01*
X32741Y91161D01*
Y91262D02*
X32639Y91465D01*
X32842D01*
X32741Y91262D01*
Y88621D02*
X32537Y89027D01*
X32944D01*
X32741Y88621D01*
Y88722D02*
X32639Y88925D01*
X32842D01*
X32741Y88722D01*
Y86081D02*
X32537Y86487D01*
X32944D01*
X32741Y86081D01*
Y86182D02*
X32639Y86385D01*
X32842D01*
X32741Y86182D01*
Y83541D02*
X32537Y83947D01*
X32944D01*
X32741Y83541D01*
Y83642D02*
X32639Y83845D01*
X32842D01*
X32741Y83642D01*
X35281Y91161D02*
X35077Y91567D01*
X35484D01*
X35281Y91161D01*
Y91262D02*
X35179Y91465D01*
X35382D01*
X35281Y91262D01*
Y88621D02*
X35077Y89027D01*
X35484D01*
X35281Y88621D01*
Y88722D02*
X35179Y88925D01*
X35382D01*
X35281Y88722D01*
Y86081D02*
X35077Y86487D01*
X35484D01*
X35281Y86081D01*
Y86182D02*
X35179Y86385D01*
X35382D01*
X35281Y86182D01*
Y83541D02*
X35077Y83947D01*
X35484D01*
X35281Y83541D01*
Y83642D02*
X35179Y83845D01*
X35382D01*
X35281Y83642D01*
X37821Y91161D02*
X37617Y91567D01*
X38024D01*
X37821Y91161D01*
Y91262D02*
X37719Y91465D01*
X37922D01*
X37821Y91262D01*
Y88621D02*
X37617Y89027D01*
X38024D01*
X37821Y88621D01*
Y88722D02*
X37719Y88925D01*
X37922D01*
X37821Y88722D01*
X40361Y86081D02*
X40157Y86487D01*
X40564D01*
X40361Y86081D01*
Y86182D02*
X40259Y86385D01*
X40462D01*
X40361Y86182D01*
Y83541D02*
X40157Y83947D01*
X40564D01*
X40361Y83541D01*
Y83642D02*
X40259Y83845D01*
X40462D01*
X40361Y83642D01*
Y91161D02*
X40157Y91567D01*
X40564D01*
X40361Y91161D01*
Y91262D02*
X40259Y91465D01*
X40462D01*
X40361Y91262D01*
Y88621D02*
X40157Y89027D01*
X40564D01*
X40361Y88621D01*
Y88722D02*
X40259Y88925D01*
X40462D01*
X40361Y88722D01*
X42901Y86081D02*
X42697Y86487D01*
X43104D01*
X42901Y86081D01*
Y86182D02*
X42799Y86385D01*
X43002D01*
X42901Y86182D01*
Y83541D02*
X42697Y83947D01*
X43104D01*
X42901Y83541D01*
Y83642D02*
X42799Y83845D01*
X43002D01*
X42901Y83642D01*
Y91161D02*
X42697Y91567D01*
X43104D01*
X42901Y91161D01*
Y91262D02*
X42799Y91465D01*
X43002D01*
X42901Y91262D01*
Y88621D02*
X42697Y89027D01*
X43104D01*
X42901Y88621D01*
Y88722D02*
X42799Y88925D01*
X43002D01*
X42901Y88722D01*
X45441Y86081D02*
X45237Y86487D01*
X45644D01*
X45441Y86081D01*
Y86182D02*
X45339Y86385D01*
X45542D01*
X45441Y86182D01*
Y83541D02*
X45237Y83947D01*
X45644D01*
X45441Y83541D01*
Y83642D02*
X45339Y83845D01*
X45542D01*
X45441Y83642D01*
Y91161D02*
X45237Y91567D01*
X45644D01*
X45441Y91161D01*
Y91262D02*
X45339Y91465D01*
X45542D01*
X45441Y91262D01*
Y88621D02*
X45237Y89027D01*
X45644D01*
X45441Y88621D01*
Y88722D02*
X45339Y88925D01*
X45542D01*
X45441Y88722D01*
X47981Y86081D02*
X47777Y86487D01*
X48184D01*
X47981Y86081D01*
Y86182D02*
X47879Y86385D01*
X48082D01*
X47981Y86182D01*
Y83541D02*
X47777Y83947D01*
X48184D01*
X47981Y83541D01*
Y83642D02*
X47879Y83845D01*
X48082D01*
X47981Y83642D01*
Y91161D02*
X47777Y91567D01*
X48184D01*
X47981Y91161D01*
Y91262D02*
X47879Y91465D01*
X48082D01*
X47981Y91262D01*
Y88621D02*
X47777Y89027D01*
X48184D01*
X47981Y88621D01*
Y88722D02*
X47879Y88925D01*
X48082D01*
X47981Y88722D01*
X50521Y86081D02*
X50317Y86487D01*
X50724D01*
X50521Y86081D01*
Y86182D02*
X50419Y86385D01*
X50622D01*
X50521Y86182D01*
Y83541D02*
X50317Y83947D01*
X50724D01*
X50521Y83541D01*
Y83642D02*
X50419Y83845D01*
X50622D01*
X50521Y83642D01*
Y91161D02*
X50317Y91567D01*
X50724D01*
X50521Y91161D01*
Y91262D02*
X50419Y91465D01*
X50622D01*
X50521Y91262D01*
Y88621D02*
X50317Y89027D01*
X50724D01*
X50521Y88621D01*
Y88722D02*
X50419Y88925D01*
X50622D01*
X50521Y88722D01*
X53061Y86081D02*
X52857Y86487D01*
X53264D01*
X53061Y86081D01*
Y86182D02*
X52959Y86385D01*
X53162D01*
X53061Y86182D01*
Y83541D02*
X52857Y83947D01*
X53264D01*
X53061Y83541D01*
Y83642D02*
X52959Y83845D01*
X53162D01*
X53061Y83642D01*
Y91161D02*
X52857Y91567D01*
X53264D01*
X53061Y91161D01*
Y91262D02*
X52959Y91465D01*
X53162D01*
X53061Y91262D01*
Y88621D02*
X52857Y89027D01*
X53264D01*
X53061Y88621D01*
Y88722D02*
X52959Y88925D01*
X53162D01*
X53061Y88722D01*
X55601Y86081D02*
X55397Y86487D01*
X55804D01*
X55601Y86081D01*
Y86182D02*
X55499Y86385D01*
X55702D01*
X55601Y86182D01*
Y83541D02*
X55397Y83947D01*
X55804D01*
X55601Y83541D01*
Y83642D02*
X55499Y83845D01*
X55702D01*
X55601Y83642D01*
Y91161D02*
X55397Y91567D01*
X55804D01*
X55601Y91161D01*
Y91262D02*
X55499Y91465D01*
X55702D01*
X55601Y91262D01*
Y88621D02*
X55397Y89027D01*
X55804D01*
X55601Y88621D01*
Y88722D02*
X55499Y88925D01*
X55702D01*
X55601Y88722D01*
X58141Y86081D02*
X57937Y86487D01*
X58344D01*
X58141Y86081D01*
Y86182D02*
X58039Y86385D01*
X58242D01*
X58141Y86182D01*
Y83541D02*
X57937Y83947D01*
X58344D01*
X58141Y83541D01*
Y83642D02*
X58039Y83845D01*
X58242D01*
X58141Y83642D01*
Y91161D02*
X57937Y91567D01*
X58344D01*
X58141Y91161D01*
Y91262D02*
X58039Y91465D01*
X58242D01*
X58141Y91262D01*
Y88621D02*
X57937Y89027D01*
X58344D01*
X58141Y88621D01*
Y88722D02*
X58039Y88925D01*
X58242D01*
X58141Y88722D01*
X60681Y86081D02*
X60477Y86487D01*
X60884D01*
X60681Y86081D01*
Y86182D02*
X60579Y86385D01*
X60782D01*
X60681Y86182D01*
Y83541D02*
X60477Y83947D01*
X60884D01*
X60681Y83541D01*
Y83642D02*
X60579Y83845D01*
X60782D01*
X60681Y83642D01*
Y91161D02*
X60477Y91567D01*
X60884D01*
X60681Y91161D01*
Y91262D02*
X60579Y91465D01*
X60782D01*
X60681Y91262D01*
Y88621D02*
X60477Y89027D01*
X60884D01*
X60681Y88621D01*
Y88722D02*
X60579Y88925D01*
X60782D01*
X60681Y88722D01*
X63221Y86081D02*
X63017Y86487D01*
X63424D01*
X63221Y86081D01*
Y86182D02*
X63119Y86385D01*
X63322D01*
X63221Y86182D01*
Y83541D02*
X63017Y83947D01*
X63424D01*
X63221Y83541D01*
Y83642D02*
X63119Y83845D01*
X63322D01*
X63221Y83642D01*
Y91161D02*
X63017Y91567D01*
X63424D01*
X63221Y91161D01*
Y91262D02*
X63119Y91465D01*
X63322D01*
X63221Y91262D01*
Y88621D02*
X63017Y89027D01*
X63424D01*
X63221Y88621D01*
Y88722D02*
X63119Y88925D01*
X63322D01*
X63221Y88722D01*
X65761Y86081D02*
X65557Y86487D01*
X65964D01*
X65761Y86081D01*
Y86182D02*
X65659Y86385D01*
X65862D01*
X65761Y86182D01*
Y83541D02*
X65557Y83947D01*
X65964D01*
X65761Y83541D01*
Y83642D02*
X65659Y83845D01*
X65862D01*
X65761Y83642D01*
Y91161D02*
X65557Y91567D01*
X65964D01*
X65761Y91161D01*
Y91262D02*
X65659Y91465D01*
X65862D01*
X65761Y91262D01*
Y88621D02*
X65557Y89027D01*
X65964D01*
X65761Y88621D01*
Y88722D02*
X65659Y88925D01*
X65862D01*
X65761Y88722D01*
X68301Y86081D02*
X68097Y86487D01*
X68504D01*
X68301Y86081D01*
Y86182D02*
X68199Y86385D01*
X68402D01*
X68301Y86182D01*
Y83541D02*
X68097Y83947D01*
X68504D01*
X68301Y83541D01*
Y83642D02*
X68199Y83845D01*
X68402D01*
X68301Y83642D01*
Y91161D02*
X68097Y91567D01*
X68504D01*
X68301Y91161D01*
Y91262D02*
X68199Y91465D01*
X68402D01*
X68301Y91262D01*
Y88621D02*
X68097Y89027D01*
X68504D01*
X68301Y88621D01*
Y88722D02*
X68199Y88925D01*
X68402D01*
X68301Y88722D01*
X70841Y86081D02*
X70637Y86487D01*
X71044D01*
X70841Y86081D01*
Y86182D02*
X70739Y86385D01*
X70942D01*
X70841Y86182D01*
Y83541D02*
X70637Y83947D01*
X71044D01*
X70841Y83541D01*
Y83642D02*
X70739Y83845D01*
X70942D01*
X70841Y83642D01*
Y91161D02*
X70637Y91567D01*
X71044D01*
X70841Y91161D01*
Y91262D02*
X70739Y91465D01*
X70942D01*
X70841Y91262D01*
Y88621D02*
X70637Y89027D01*
X71044D01*
X70841Y88621D01*
Y88722D02*
X70739Y88925D01*
X70942D01*
X70841Y88722D01*
X73381Y86081D02*
X73177Y86487D01*
X73584D01*
X73381Y86081D01*
Y86182D02*
X73279Y86385D01*
X73482D01*
X73381Y86182D01*
Y83541D02*
X73177Y83947D01*
X73584D01*
X73381Y83541D01*
Y83642D02*
X73279Y83845D01*
X73482D01*
X73381Y83642D01*
Y91161D02*
X73177Y91567D01*
X73584D01*
X73381Y91161D01*
Y91262D02*
X73279Y91465D01*
X73482D01*
X73381Y91262D01*
Y88621D02*
X73177Y89027D01*
X73584D01*
X73381Y88621D01*
Y88722D02*
X73279Y88925D01*
X73482D01*
X73381Y88722D01*
X75921Y86081D02*
X75717Y86487D01*
X76124D01*
X75921Y86081D01*
Y86182D02*
X75819Y86385D01*
X76022D01*
X75921Y86182D01*
Y83541D02*
X75717Y83947D01*
X76124D01*
X75921Y83541D01*
Y83642D02*
X75819Y83845D01*
X76022D01*
X75921Y83642D01*
Y91161D02*
X75717Y91567D01*
X76124D01*
X75921Y91161D01*
Y91262D02*
X75819Y91465D01*
X76022D01*
X75921Y91262D01*
Y88621D02*
X75717Y89027D01*
X76124D01*
X75921Y88621D01*
Y88722D02*
X75819Y88925D01*
X76022D01*
X75921Y88722D01*
X37821Y86081D02*
X37617Y86487D01*
X38024D01*
X37821Y86081D01*
Y86182D02*
X37719Y86385D01*
X37922D01*
X37821Y86182D01*
Y83541D02*
X37617Y83947D01*
X38024D01*
X37821Y83541D01*
Y83642D02*
X37719Y83845D01*
X37922D01*
X37821Y83642D01*
X7326Y90976D02*
X7427Y91077D01*
X7529D01*
X7427Y91179D01*
X7529Y91280D01*
X7427D01*
X7326Y91382D01*
X7224Y91280D01*
X7122D01*
X7224Y91179D01*
X7122Y91077D01*
X7224D01*
X7326Y90976D01*
Y91077D02*
X7376Y91128D01*
X7427D01*
X7376Y91179D01*
X7427Y91230D01*
X7376D01*
X7326Y91280D01*
X7275Y91230D01*
X7224D01*
X7275Y91179D01*
X7224Y91128D01*
X7275D01*
X7326Y91077D01*
X81026Y90976D02*
X81127Y91077D01*
X81229D01*
X81127Y91179D01*
X81229Y91280D01*
X81127D01*
X81026Y91382D01*
X80924Y91280D01*
X80822D01*
X80924Y91179D01*
X80822Y91077D01*
X80924D01*
X81026Y90976D01*
Y91077D02*
X81076Y91128D01*
X81127D01*
X81076Y91179D01*
X81127Y91230D01*
X81076D01*
X81026Y91280D01*
X80975Y91230D01*
X80924D01*
X80975Y91179D01*
X80924Y91128D01*
X80975D01*
X81026Y91077D01*
X83526Y5276D02*
X83627Y5377D01*
X83729D01*
X83627Y5479D01*
X83729Y5580D01*
X83627D01*
X83526Y5682D01*
X83424Y5580D01*
X83322D01*
X83424Y5479D01*
X83322Y5377D01*
X83424D01*
X83526Y5276D01*
Y5377D02*
X83576Y5428D01*
X83627D01*
X83576Y5479D01*
X83627Y5530D01*
X83576D01*
X83526Y5580D01*
X83475Y5530D01*
X83424D01*
X83475Y5479D01*
X83424Y5428D01*
X83475D01*
X83526Y5377D01*
X3526Y5276D02*
X3627Y5377D01*
X3729D01*
X3627Y5479D01*
X3729Y5580D01*
X3627D01*
X3526Y5682D01*
X3424Y5580D01*
X3322D01*
X3424Y5479D01*
X3322Y5377D01*
X3424D01*
X3526Y5276D01*
Y5377D02*
X3576Y5428D01*
X3627D01*
X3576Y5479D01*
X3627Y5530D01*
X3576D01*
X3526Y5580D01*
X3475Y5530D01*
X3424D01*
X3475Y5479D01*
X3424Y5428D01*
X3475D01*
X3526Y5377D01*
X67386Y33122D02*
X67996Y33731D01*
X68605Y33122D01*
X67996Y32512D01*
X67386Y33122D01*
Y29464D02*
X67691D01*
X67996Y29769D01*
X68301Y29464D01*
X68605D01*
Y29769D01*
X68301Y30074D01*
X68605Y30378D01*
Y30683D01*
X68301D01*
X67996Y30378D01*
X67691Y30683D01*
X67386D01*
Y30378D01*
X67691Y30074D01*
X67386Y29769D01*
Y29464D01*
Y23368D02*
Y24587D01*
X68605D01*
Y23368D01*
X67386D01*
X67996Y20320D02*
X67386Y21539D01*
X68605D01*
X67996Y20320D01*
Y14224D02*
X67386Y15443D01*
X68605D01*
X67996Y14224D01*
Y14478D02*
X67640Y15189D01*
X68351D01*
X67996Y14478D01*
Y11176D02*
X68301Y11481D01*
X68605D01*
X68301Y11786D01*
X68605Y12090D01*
X68301D01*
X67996Y12395D01*
X67691Y12090D01*
X67386D01*
X67691Y11786D01*
X67386Y11481D01*
X67691D01*
X67996Y11176D01*
X67386Y8128D02*
X67691Y8738D01*
X67386Y9347D01*
X67996Y9042D01*
X68605Y9347D01*
X68301Y8738D01*
X68605Y8128D01*
X67996Y8433D01*
X67386Y8128D01*
X67691Y5385D02*
Y5080D01*
X68301D01*
Y5385D01*
X68605D01*
Y5994D01*
X68301D01*
Y6299D01*
X67691D01*
Y5994D01*
X67386D01*
Y5385D01*
X67691D01*
X67996Y2032D02*
X68301Y2337D01*
X68605D01*
X68301Y2642D01*
X68605Y2946D01*
X68301D01*
X67996Y3251D01*
X67691Y2946D01*
X67386D01*
X67691Y2642D01*
X67386Y2337D01*
X67691D01*
X67996Y2032D01*
Y2286D02*
X68174Y2464D01*
X68351D01*
X68174Y2642D01*
X68351Y2819D01*
X68174D01*
X67996Y2997D01*
X67818Y2819D01*
X67640D01*
X67818Y2642D01*
X67640Y2464D01*
X67818D01*
X67996Y2286D01*
X67386Y-1016D02*
Y203D01*
X68605D01*
Y-1016D01*
X67386D01*
X67640Y-762D02*
Y-51D01*
X68351D01*
Y-762D01*
X67640D01*
D119*
X72238Y18364D02*
G03*
X72238Y18364I-203J0D01*
G01*
Y20904D02*
G03*
X72238Y20904I-203J0D01*
G01*
Y23444D02*
G03*
X72238Y23444I-203J0D01*
G01*
X16408Y5461D02*
G03*
X16408Y5461I-203J0D01*
G01*
X8788D02*
G03*
X8788Y5461I-203J0D01*
G01*
X41554Y74549D02*
G03*
X41554Y74549I-203J0D01*
G01*
X44653Y44374D02*
G03*
X44653Y44374I-203J0D01*
G01*
X42545Y44425D02*
G03*
X42545Y44425I-203J0D01*
G01*
X50444Y42418D02*
G03*
X50444Y42418I-203J0D01*
G01*
X35789Y57556D02*
G03*
X35789Y57556I-203J0D01*
G01*
X67005Y42469D02*
G03*
X67005Y42469I-203J0D01*
G01*
X34874Y66954D02*
G03*
X34874Y66954I-203J0D01*
G01*
X29515Y57607D02*
G03*
X29515Y57607I-203J0D01*
G01*
X44094Y21946D02*
G03*
X44094Y21946I-203J0D01*
G01*
X22784Y76860D02*
G03*
X22784Y76860I-203J0D01*
G01*
X17678Y75514D02*
G03*
X17678Y75514I-203J0D01*
G01*
X37592Y69850D02*
G03*
X37592Y69850I-203J0D01*
G01*
Y72695D02*
G03*
X37592Y72695I-203J0D01*
G01*
X33757Y76251D02*
G03*
X33757Y76251I-203J0D01*
G01*
X32334Y77165D02*
G03*
X32334Y77165I-203J0D01*
G01*
X47269Y70790D02*
G03*
X47269Y70790I-203J0D01*
G01*
X45212Y69672D02*
G03*
X45212Y69672I-203J0D01*
G01*
X50317Y72314D02*
G03*
X50317Y72314I-203J0D01*
G01*
X45517Y79858D02*
G03*
X45517Y79858I-203J0D01*
G01*
X53569Y71501D02*
G03*
X53569Y71501I-203J0D01*
G01*
X55575Y71450D02*
G03*
X55575Y71450I-203J0D01*
G01*
X65316Y71209D02*
G03*
X65316Y71209I-203J0D01*
G01*
X79375Y70994D02*
G03*
X79375Y70994I-203J0D01*
G01*
X78207Y83185D02*
G03*
X78207Y83185I-203J0D01*
G01*
X15138Y80696D02*
G03*
X15138Y80696I-203J0D01*
G01*
X74930Y43485D02*
G03*
X74930Y43485I-203J0D01*
G01*
X49733Y64770D02*
G03*
X49733Y64770I-203J0D01*
G01*
X52464Y65138D02*
G03*
X52464Y65138I-203J0D01*
G01*
X64414Y81356D02*
G03*
X64414Y81356I-203J0D01*
G01*
X42012Y79553D02*
G03*
X42012Y79553I-203J0D01*
G01*
X38405Y79680D02*
G03*
X38405Y79680I-203J0D01*
G01*
X61163Y20625D02*
G03*
X61163Y20625I-203J0D01*
G01*
X26175Y12967D02*
G03*
X26175Y12967I-203J0D01*
G01*
X12268Y80696D02*
G03*
X12268Y80696I-203J0D01*
G01*
X7112Y81890D02*
G03*
X7112Y81890I-203J0D01*
G01*
X5436Y66040D02*
G03*
X5436Y66040I-203J0D01*
G01*
X36830Y33757D02*
G03*
X36830Y33757I-203J0D01*
G01*
X14122Y38329D02*
G03*
X14122Y38329I-203J0D01*
G01*
X10135Y24867D02*
G03*
X10135Y24867I-203J0D01*
G01*
X7747Y32461D02*
G03*
X7747Y32461I-203J0D01*
G01*
X6274Y36093D02*
G03*
X6274Y36093I-203J0D01*
G01*
X71069Y34519D02*
G03*
X71069Y34519I-203J0D01*
G01*
X37059Y48895D02*
G03*
X37059Y48895I-203J0D01*
G01*
X41173Y47117D02*
G03*
X41173Y47117I-203J0D01*
G01*
X31318Y52972D02*
G03*
X31318Y52972I-203J0D01*
G01*
X75692Y23774D02*
G03*
X75692Y23774I-203J0D01*
G01*
X73508Y31725D02*
G03*
X73508Y31725I-203J0D01*
G01*
X84374Y64994D02*
G03*
X84374Y64994I-203J0D01*
G01*
X29337Y40919D02*
G03*
X29337Y40919I-203J0D01*
G01*
X25171Y41732D02*
G03*
X25171Y41732I-203J0D01*
G01*
X84176Y76124D02*
G03*
X84176Y76124I-203J0D01*
G01*
X84099Y69926D02*
G03*
X84099Y69926I-203J0D01*
G01*
Y60808D02*
G03*
X84099Y60808I-203J0D01*
G01*
X6401Y80188D02*
G03*
X6401Y80188I-203J0D01*
G01*
X5436Y73101D02*
G03*
X5436Y73101I-203J0D01*
G01*
X24575Y73470D02*
G03*
X24575Y73470I-203J0D01*
G01*
X22631Y74574D02*
G03*
X22631Y74574I-203J0D01*
G01*
X17069Y71298D02*
G03*
X17069Y71298I-203J0D01*
G01*
X19761Y72136D02*
G03*
X19761Y72136I-203J0D01*
G01*
X40488Y79858D02*
G03*
X40488Y79858I-203J0D01*
G01*
X11608Y79045D02*
G03*
X11608Y79045I-203J0D01*
G01*
X25629Y51587D02*
G03*
X25629Y51587I-203J0D01*
G01*
X27965Y51486D02*
G03*
X27965Y51486I-203J0D01*
G01*
X27483Y55931D02*
G03*
X27483Y55931I-203J0D01*
G01*
X29337Y54534D02*
G03*
X29337Y54534I-203J0D01*
G01*
X11786Y75387D02*
G03*
X11786Y75387I-203J0D01*
G01*
X7645Y23393D02*
G03*
X7645Y23393I-203J0D01*
G01*
X4267Y61976D02*
G03*
X4267Y61976I-203J0D01*
G01*
X67183Y78588D02*
G03*
X67183Y78588I-203J0D01*
G01*
X32664Y61671D02*
G03*
X32664Y61671I-203J0D01*
G01*
X9601Y55702D02*
G03*
X9601Y55702I-203J0D01*
G01*
X35839Y59690D02*
G03*
X35839Y59690I-203J0D01*
G01*
X60122Y63119D02*
G03*
X60122Y63119I-203J0D01*
G01*
X51613Y63424D02*
G03*
X51613Y63424I-203J0D01*
G01*
X71120Y60985D02*
G03*
X71120Y60985I-203J0D01*
G01*
X71862Y72105D02*
G03*
X71862Y72105I-203J0D01*
G01*
X43028Y68555D02*
G03*
X43028Y68555I-203J0D01*
G01*
X53518Y67996D02*
G03*
X53518Y67996I-203J0D01*
G01*
X54966Y66802D02*
G03*
X54966Y66802I-203J0D01*
G01*
X55550Y68885D02*
G03*
X55550Y68885I-203J0D01*
G01*
X37744Y57277D02*
G03*
X37744Y57277I-203J0D01*
G01*
X60401Y48260D02*
G03*
X60401Y48260I-203J0D01*
G01*
X56083Y60046D02*
G03*
X56083Y60046I-203J0D01*
G01*
X56134Y43967D02*
G03*
X56134Y43967I-203J0D01*
G01*
X58242Y59817D02*
G03*
X58242Y59817I-203J0D01*
G01*
X64262Y63551D02*
G03*
X64262Y63551I-203J0D01*
G01*
X31623Y36678D02*
G03*
X31623Y36678I-203J0D01*
G01*
X43231Y12268D02*
G03*
X43231Y12268I-203J0D01*
G01*
X41910Y10973D02*
G03*
X41910Y10973I-203J0D01*
G01*
X47854Y22174D02*
G03*
X47854Y22174I-203J0D01*
G01*
X46304Y10490D02*
G03*
X46304Y10490I-203J0D01*
G01*
X5359Y74879D02*
G03*
X5359Y74879I-203J0D01*
G01*
X18466Y51308D02*
G03*
X18466Y51308I-203J0D01*
G01*
D120*
X16307Y5461D02*
G03*
X16307Y5461I-102J0D01*
G01*
X8687D02*
G03*
X8687Y5461I-102J0D01*
G01*
D121*
X68605Y37541D02*
X68300Y37845D01*
X67691D01*
X67386Y37541D01*
Y37236D01*
X67691Y36931D01*
X68300D01*
X68605Y36627D01*
Y36322D01*
X68300Y36017D01*
X67691D01*
X67386Y36322D01*
X69214Y37236D02*
Y36322D01*
X69519Y36017D01*
X70433D01*
Y35713D01*
X70129Y35408D01*
X69824D01*
X70433Y36017D02*
Y37236D01*
X71043Y36017D02*
Y37236D01*
X71347D01*
X71652Y36931D01*
Y36017D01*
Y36931D01*
X71957Y37236D01*
X72261Y36931D01*
Y36017D01*
X72871Y37845D02*
Y36017D01*
X73785D01*
X74090Y36322D01*
Y36627D01*
Y36931D01*
X73785Y37236D01*
X72871D01*
X75004Y36017D02*
X75613D01*
X75918Y36322D01*
Y36931D01*
X75613Y37236D01*
X75004D01*
X74699Y36931D01*
Y36322D01*
X75004Y36017D01*
X76527D02*
X77137D01*
X76832D01*
Y37845D01*
X76527D01*
X80185D02*
Y36017D01*
Y36931D01*
X81403D01*
Y37845D01*
Y36017D01*
X82013D02*
X82622D01*
X82318D01*
Y37236D01*
X82013D01*
X83841Y37541D02*
Y37236D01*
X83536D01*
X84146D01*
X83841D01*
Y36322D01*
X84146Y36017D01*
X88107Y37541D02*
X87802Y37845D01*
X87193D01*
X86888Y37541D01*
Y36322D01*
X87193Y36017D01*
X87802D01*
X88107Y36322D01*
X89021Y36017D02*
X89630D01*
X89935Y36322D01*
Y36931D01*
X89630Y37236D01*
X89021D01*
X88716Y36931D01*
Y36322D01*
X89021Y36017D01*
X90544Y37236D02*
Y36322D01*
X90849Y36017D01*
X91763D01*
Y37236D01*
X92373Y36017D02*
Y37236D01*
X93287D01*
X93591Y36931D01*
Y36017D01*
X94506Y37541D02*
Y37236D01*
X94201D01*
X94810D01*
X94506D01*
Y36322D01*
X94810Y36017D01*
X99077Y37845D02*
X97858D01*
Y36931D01*
X98468D01*
X97858D01*
Y36017D01*
X99687D02*
X100296D01*
X99991D01*
Y37236D01*
X99687D01*
X101210Y36017D02*
Y37236D01*
X102124D01*
X102429Y36931D01*
Y36017D01*
X103038D02*
X103648D01*
X103343D01*
Y37236D01*
X103038D01*
X104562Y36017D02*
X105476D01*
X105781Y36322D01*
X105476Y36627D01*
X104866D01*
X104562Y36931D01*
X104866Y37236D01*
X105781D01*
X106390Y37845D02*
Y36017D01*
Y36931D01*
X106695Y37236D01*
X107304D01*
X107609Y36931D01*
Y36017D01*
X109132D02*
X108523D01*
X108218Y36322D01*
Y36931D01*
X108523Y37236D01*
X109132D01*
X109437Y36931D01*
Y36627D01*
X108218D01*
X111265Y37845D02*
Y36017D01*
X110351D01*
X110046Y36322D01*
Y36931D01*
X110351Y37236D01*
X111265D01*
X113703Y37845D02*
Y36017D01*
Y36931D01*
X114922D01*
Y37845D01*
Y36017D01*
X115836D02*
X116445D01*
X116750Y36322D01*
Y36931D01*
X116445Y37236D01*
X115836D01*
X115531Y36931D01*
Y36322D01*
X115836Y36017D01*
X117359D02*
X117969D01*
X117664D01*
Y37845D01*
X117359D01*
X119797Y36017D02*
X119187D01*
X118883Y36322D01*
Y36931D01*
X119187Y37236D01*
X119797D01*
X120102Y36931D01*
Y36627D01*
X118883D01*
X123758Y37541D02*
X123453Y37845D01*
X122844D01*
X122539Y37541D01*
Y37236D01*
X122844Y36931D01*
X123453D01*
X123758Y36627D01*
Y36322D01*
X123453Y36017D01*
X122844D01*
X122539Y36322D01*
X124367Y36017D02*
X124977D01*
X124672D01*
Y37236D01*
X124367D01*
X125891D02*
X127110D01*
X125891Y36017D01*
X127110D01*
X128633D02*
X128024D01*
X127719Y36322D01*
Y36931D01*
X128024Y37236D01*
X128633D01*
X128938Y36931D01*
Y36627D01*
X127719D01*
X131986Y36017D02*
Y37845D01*
X132900D01*
X133205Y37541D01*
Y36931D01*
X132900Y36627D01*
X131986D01*
X133814Y36017D02*
X134423D01*
X134119D01*
Y37845D01*
X133814D01*
X135642Y37236D02*
X136252D01*
X136556Y36931D01*
Y36017D01*
X135642D01*
X135338Y36322D01*
X135642Y36627D01*
X136556D01*
X137470Y37541D02*
Y37236D01*
X137166D01*
X137775D01*
X137470D01*
Y36322D01*
X137775Y36017D01*
X139603D02*
X138994D01*
X138689Y36322D01*
Y36931D01*
X138994Y37236D01*
X139603D01*
X139908Y36931D01*
Y36627D01*
X138689D01*
X141736Y37845D02*
Y36017D01*
X140822D01*
X140517Y36322D01*
Y36931D01*
X140822Y37236D01*
X141736D01*
X144784Y37845D02*
Y36017D01*
Y36931D01*
X146003D01*
Y37845D01*
Y36017D01*
X146917D02*
X147527D01*
X147831Y36322D01*
Y36931D01*
X147527Y37236D01*
X146917D01*
X146613Y36931D01*
Y36322D01*
X146917Y36017D01*
X148441D02*
X149050D01*
X148745D01*
Y37845D01*
X148441D01*
X150878Y36017D02*
X150269D01*
X149964Y36322D01*
Y36931D01*
X150269Y37236D01*
X150878D01*
X151183Y36931D01*
Y36627D01*
X149964D01*
X153621Y37845D02*
X154839D01*
X154230D01*
Y36017D01*
X155449Y37236D02*
Y36322D01*
X155754Y36017D01*
X156668D01*
Y35713D01*
X156363Y35408D01*
X156058D01*
X156668Y36017D02*
Y37236D01*
X157277Y35408D02*
Y37236D01*
X158191D01*
X158496Y36931D01*
Y36322D01*
X158191Y36017D01*
X157277D01*
X160019D02*
X159410D01*
X159105Y36322D01*
Y36931D01*
X159410Y37236D01*
X160019D01*
X160324Y36931D01*
Y36627D01*
X159105D01*
X65151Y38760D02*
X163372D01*
X65151Y34646D02*
X163372D01*
X65151Y38760D02*
Y-4978D01*
X163372Y38760D02*
Y-4978D01*
X79067Y38760D02*
Y-4978D01*
X96741Y38760D02*
Y-4978D01*
X130868Y38760D02*
Y-4978D01*
X143667Y38760D02*
Y-4978D01*
X65151Y-1930D02*
X163372D01*
X65151Y-4978D02*
X163372D01*
D122*
X68605Y27026D02*
G03*
X68605Y27026I-610J0D01*
G01*
Y17882D02*
G03*
X68605Y17882I-610J0D01*
G01*
D123*
X68351D02*
G03*
X68351Y17882I-356J0D01*
G01*
M02*
