M48
;Layer_Color=9474304
;FILE_FORMAT=4:3
METRIC,LZ
T14F00S00C5.080
%
G90
G05
T14
G00X0086204Y-0001321
M15
G01X0086689Y-0001171
G01X0087134Y-0000928
G01X0087496Y-0000628
G01X0091585Y0003462
G01X0091906Y0003855
G01X0092143Y0004303
G01X0092286Y000479
G01X0092329Y0005258
G01X0092329Y0092202
G01X0092278Y0092707
G01X0092128Y0093192
G01X0091885Y0093637
G01X0091585Y0093998
G01X008968Y0095903
G01X0089287Y0096224
G01X0088838Y0096461
G01X0088352Y0096604
G01X0087846Y0096647
G01X0087409Y0096596
G01X0004775Y0096596
G01X000427Y0096546
G01X0003786Y0096396
G01X000334Y0096152
G01X0002979Y0095852
G01X-000111Y0091763
G01X-0001431Y009137
G01X-0001668Y0090921
G01X-0001811Y0090434
G01X-0001854Y0089967
G01X-0001854Y0004216
G01X-0001804Y0003712
G01X-0001654Y0003227
G01X-000141Y0002782
G01X-000111Y000242
G01X0001938Y-0000628
G01X0002331Y-0000949
G01X0002779Y-0001185
G01X0003266Y-0001328
G01X0003734Y-0001372
G01X00857Y-0001372
G01X0086204Y-0001321
M16
M17
M30
