M48
;Layer_Color=9474304
;FILE_FORMAT=4:3
METRIC,LZ
;TYPE=PLATED
T1F00S00C0.500
T2F00S00C0.600
T3F00S00C0.700
T4F00S00C0.711
T5F00S00C0.762
T6F00S00C0.813
T7F00S00C0.850
T8F00S00C0.914
T9F00S00C1.000
T10F00S00C1.020
T11F00S00C1.200
T12F00S00C3.048
T13F00S00C3.050
;TYPE=NON_PLATED
%
T01
X0083007Y0048991
Y0050246
X0083591Y005402
Y0055275
T02
X0065634Y0040386
X0068174
X0017348Y0061671
X0014808
X0034519Y0069609
X0037059
X0044069Y0074549
Y0077089
X0068174Y0080188
X0070714
X0079756Y0083947
Y0086487
T03
X0072034Y0018364
Y0020904
Y0023444
T04
X0075489Y0023774
X0073304Y0031725
X0070866Y0034519
X0067698Y0046105
X0068936Y0048235
X0067894Y005047
X0063957Y0051791
X006383Y0054991
X0074016Y0054381
X0076327Y0056718
X0074701Y0058572
X0075064Y004862
X0062967Y0043713
X0062776Y0041567
X0059385Y0043688
X0052857Y0047269
X0050902Y0046685
X0050952Y0049124
X0056134Y0052248
X0055042Y005682
X004097Y0047117
X0036855Y0048895
X0031115Y0052972
X0029134Y0054534
X002728Y0055931
X0027762Y0051486
X0025425Y0051587
X0024968Y0041732
X0029134Y0040919
X003142Y0036678
X0036627Y0033757
X0020472Y0029159
X0015621Y0027178
X0009931Y0024867
X0007442Y0023393
X0007544Y0032461
X0006071Y0036093
X0013919Y0038329
X0018466Y0051918
X0009398Y0055702
X0002489Y005969
X0004064Y0061976
X0004877Y0066065
X0005232Y0073101
X0006198Y0080188
X0006502Y0081839
X0011811Y0080569
X0011405Y0079045
X0011582Y0075387
X0016866Y0071298
X0019558Y0072136
X0022428Y0074574
X0024372Y007347
X0031039Y0075387
X0032614Y0074092
X0038532Y0080493
X0040284Y0079858
X0042926Y008067
X0045276Y0079769
X0046533Y0071958
X0042875Y0071476
X0051791Y0070917
X0049454Y0061519
X0040589Y0059614
X0032461Y0061671
X0059944Y0061239
X0064897Y006416
X0063805Y0067081
X0068504Y0064592
X0069113Y0061951
X0068097Y0060452
X007145Y0061773
X0072492Y0063271
X0072702Y0068305
X0075522Y0070337
X0079128Y0070235
X0083896Y0069926
X0084171Y0064994
X0083896Y0060808
X0083972Y0076124
X006698Y0078588
X0061366Y0073304
X0059258Y0073812
T05
X0076632Y0021387
X0081178Y0038506
X0079934Y0040411
X0061189Y0038862
X0062332Y0036449
X0060122Y0042164
X0045187Y0040869
X0045491Y0038862
X0045669Y0034595
X0046025Y0032233
X0014808Y0066319
T06
X0003899Y002612
X0006159
X0009449Y0029045
Y0031045
X0011449
Y0029045
Y0033045
X0009449
Y0035045
Y0037045
X0011449
Y0035045
X0006159Y003997
X0003899
T07
X007907Y0014453
X0079146Y0017399
X0086766
X008669Y0014453
X0086589Y0020625
X0078969
X007935Y0043409
Y0051029
X0039167Y0046482
X0036347Y0044399
Y0036779
X0033147Y003843
X0031623Y0033731
X0034671Y0032563
X0039192Y0032182
X0039167Y0038862
X0025527Y003843
X0024003Y0033731
X0024028Y0029362
X0023978Y0024714
X0031598
X0034671Y0024943
X0039192Y0024562
X0031648Y0029362
T08
X0083922Y0024562
X0085192
X0086462
X0021666Y0027
X0020396
X0019126
Y0031572
X0020396
X0021666
X0021615Y0036043
X0020345
X0019075
Y0040589
X0020345
X0021615
X0017501Y0083744
Y0086284
Y0088824
Y0091364
X0014961
Y0088824
Y0086284
Y0083744
X0012421
Y0086284
Y0088824
Y0091364
X0020041
X0022581
X0025121
X0027661
X0030201
X0032741
X0035281
X0037821
X0040361
X0042901
X0045441
X0047981
X0050521
X0053061
X0055601
X0058141
Y0088824
Y0086284
Y0083744
X0055601
Y0086284
Y0088824
X0053061
Y0086284
Y0083744
X0050521
Y0086284
Y0088824
X0047981
Y0086284
Y0083744
X0045441
Y0086284
Y0088824
X0042901
Y0086284
Y0083744
X0040361
X0037821
Y0086284
X0040361
Y0088824
X0037821
X0035281
Y0086284
Y0083744
X0032741
Y0086284
Y0088824
X0030201
Y0086284
Y0083744
X0027661
Y0086284
Y0088824
X0025121
Y0086284
Y0083744
X0022581
Y0086284
Y0088824
X0020041
Y0086284
Y0083744
X0060681
X0063221
X0065761
X0068301
X0070841
X0073381
X0075921
Y0086284
Y0088824
Y0091364
X0073381
Y0088824
Y0086284
X0070841
Y0088824
Y0091364
X0068301
Y0088824
Y0086284
X0065761
Y0088824
Y0091364
X0063221
Y0088824
Y0086284
X0060681
Y0088824
Y0091364
T09
X0056937Y0010116
X0056687Y0016316
X0059187
X0062937Y0014116
Y0012116
X0058937Y0010116
T10
X0046584Y0017776
X0050084
T11
X006627Y0013183
X00714
X007653
T12
X0003526Y0005479
X0083526
X0007326Y0091179
X0081026
T13
X0048334Y0009866
M30
