G04 Layer_Color=32896*
%FSLAX43Y43*%
%MOMM*%
G71*
G01*
G75*
%ADD21C,0.305*%
%ADD23C,0.762*%
%ADD24C,0.762*%
%ADD41C,0.254*%
%ADD72C,0.152*%
%ADD73C,0.127*%
D21*
X65157Y51336D02*
Y52550D01*
X67849Y51336D02*
Y52550D01*
X68637Y51336D02*
Y52550D01*
X71329Y51336D02*
Y52550D01*
X71913Y51311D02*
Y52525D01*
X74606Y51311D02*
Y52525D01*
X45653Y63819D02*
Y65619D01*
X43653Y63819D02*
Y65619D01*
X42935Y63845D02*
Y65645D01*
X40935Y63845D02*
Y65645D01*
X40319Y63870D02*
Y65670D01*
X38319Y63870D02*
Y65670D01*
X57295Y55019D02*
Y58585D01*
Y48095D02*
Y51661D01*
X45992Y48095D02*
X57194D01*
X45891Y55019D02*
Y58585D01*
X45992D02*
X57194D01*
X45891Y48095D02*
Y51661D01*
X50546Y59538D02*
Y59728D01*
X47142Y62750D02*
Y62941D01*
Y59538D02*
Y59728D01*
Y59538D02*
X50546D01*
Y62750D02*
Y62941D01*
X47142D02*
X50546D01*
X50609Y69571D02*
X50800D01*
X47396Y66167D02*
X47587D01*
X50609D02*
X50800D01*
Y69571D01*
X47396D02*
X47587D01*
X47396Y66167D02*
Y69571D01*
X60219Y51803D02*
X62627D01*
X60219Y54521D02*
X62627D01*
X60168Y55283D02*
X62576D01*
X60168Y58001D02*
X62576D01*
X59771Y66511D02*
Y66778D01*
Y63778D02*
X60038D01*
X62771D02*
Y64045D01*
Y66511D02*
Y66778D01*
X59771D02*
X60038D01*
X59771Y63778D02*
Y64045D01*
X62503Y63778D02*
X62771D01*
X62503Y66778D02*
X62771D01*
D23*
X3439Y925D02*
G03*
X3439Y924I270J269D01*
G01*
X3464Y899D02*
G03*
X3734Y787I270J269D01*
G01*
X305Y4216D02*
G03*
X417Y3947I381J0D01*
G01*
X305Y4216D02*
G03*
X416Y3947I381J0D01*
G01*
X3464Y899D02*
G03*
X3734Y787I269J269D01*
G01*
X416Y90236D02*
G03*
X305Y89967I269J-269D01*
G01*
X417Y90237D02*
G03*
X305Y89967I269J-270D01*
G01*
X4775Y94437D02*
G03*
X4505Y94325I0J-381D01*
G01*
X4775Y94437D02*
G03*
X4506Y94326I0J-381D01*
G01*
X85700Y787D02*
G03*
X85969Y899I0J381D01*
G01*
X85700Y787D02*
G03*
X85969Y899I0J381D01*
G01*
X90058Y4988D02*
G03*
X90170Y5258I-269J270D01*
G01*
X90058Y4988D02*
G03*
X90170Y5258I-269J269D01*
G01*
X88153Y94376D02*
G03*
X87694Y94437I-269J-269D01*
G01*
X88154Y94376D02*
G03*
X87694Y94437I-270J-269D01*
G01*
X90170Y92202D02*
G03*
X90058Y92471I-381J0D01*
G01*
X90170Y92202D02*
G03*
X90058Y92472I-381J0D01*
G01*
X3464Y899D02*
X3464Y899D01*
X3439Y924D02*
X3464Y899D01*
X3439Y924D02*
X3439Y924D01*
X3439Y925D02*
X3439Y924D01*
X417Y3947D02*
X3439Y925D01*
X416Y3947D02*
X417Y3947D01*
X3734Y787D02*
X84506D01*
X305Y4216D02*
Y89967D01*
X416Y90236D02*
X417Y90237D01*
X4505Y94325D01*
X4506Y94326D01*
X4775Y94437D02*
X4801D01*
X87694D01*
X84506Y787D02*
X85700D01*
X85969Y899D02*
X85969Y899D01*
X90058Y4988D01*
X90058Y4988D01*
X90170Y5258D02*
Y91821D01*
Y92202D01*
X90058Y92472D02*
X90058Y92471D01*
X88154Y94376D02*
X90058Y92472D01*
X88153Y94376D02*
X88154Y94376D01*
D24*
X3439Y924D02*
D03*
D41*
X71370Y81462D02*
X72395D01*
X72420Y81437D01*
X67570Y81462D02*
X67645Y81387D01*
X67570Y81462D02*
X68195D01*
X68220Y81437D01*
X68445D01*
X67645Y78962D02*
Y81387D01*
Y78962D02*
X68445D01*
X72395Y79112D02*
Y81462D01*
X72320Y79037D02*
X72395Y79112D01*
X71520Y79037D02*
X72320D01*
X63341Y41333D02*
X64141D01*
X63266Y41258D02*
X63341Y41333D01*
X63266Y38908D02*
Y41258D01*
X67216Y41408D02*
X68016D01*
Y38983D02*
Y41408D01*
X67216Y38933D02*
X67441D01*
X67466Y38908D01*
X68091D01*
X68016Y38983D02*
X68091Y38908D01*
X63241Y38933D02*
X63266Y38908D01*
X64291D01*
X17598Y62971D02*
X18623D01*
X18648Y62946D01*
X13798Y62971D02*
X13873Y62896D01*
X13798Y62971D02*
X14423D01*
X14448Y62946D01*
X14673D01*
X13873Y60471D02*
Y62896D01*
Y60471D02*
X14673D01*
X18623Y60621D02*
Y62971D01*
X18548Y60546D02*
X18623Y60621D01*
X17748Y60546D02*
X18548D01*
D72*
X49149Y59538D02*
G03*
X48539Y59538I-305J0D01*
G01*
X46487Y60264D02*
G03*
X46487Y60264I-76J0D01*
G01*
X50800Y68174D02*
G03*
X50800Y67564I0J-305D01*
G01*
X50149Y65436D02*
G03*
X50149Y65436I-76J0D01*
G01*
X63351Y66028D02*
G03*
X63351Y66028I-76J0D01*
G01*
D73*
X14097Y63754D02*
X13843D01*
X13970D01*
Y64389D01*
X13843Y64516D01*
X13716D01*
X13589Y64389D01*
X14351Y63754D02*
Y64389D01*
X14478Y64516D01*
X14732D01*
X14859Y64389D01*
Y63754D01*
X15113Y64516D02*
Y63754D01*
X15366Y64008D01*
X15620Y63754D01*
Y64516D01*
X15874D02*
Y63754D01*
X16255D01*
X16382Y63881D01*
Y64135D01*
X16255Y64262D01*
X15874D01*
X17144Y63754D02*
X16636D01*
Y64135D01*
X16890Y64008D01*
X17017D01*
X17144Y64135D01*
Y64389D01*
X17017Y64516D01*
X16763D01*
X16636Y64389D01*
X62992Y37516D02*
X62738D01*
X62865D01*
Y38151D01*
X62738Y38278D01*
X62611D01*
X62484Y38151D01*
X63246Y37516D02*
Y38151D01*
X63373Y38278D01*
X63627D01*
X63754Y38151D01*
Y37516D01*
X64008Y38278D02*
Y37516D01*
X64261Y37770D01*
X64515Y37516D01*
Y38278D01*
X64769D02*
Y37516D01*
X65150D01*
X65277Y37643D01*
Y37897D01*
X65150Y38024D01*
X64769D01*
X65912Y38278D02*
Y37516D01*
X65531Y37897D01*
X66039D01*
X69037Y77699D02*
X68783D01*
X68910D01*
Y78334D01*
X68783Y78461D01*
X68656D01*
X68529Y78334D01*
X69291Y77699D02*
Y78334D01*
X69418Y78461D01*
X69672D01*
X69799Y78334D01*
Y77699D01*
X70053Y78461D02*
Y77699D01*
X70307Y77953D01*
X70561Y77699D01*
Y78461D01*
X70814D02*
Y77699D01*
X71195D01*
X71322Y77826D01*
Y78080D01*
X71195Y78207D01*
X70814D01*
X71576Y77826D02*
X71703Y77699D01*
X71957D01*
X72084Y77826D01*
Y77953D01*
X71957Y78080D01*
X71830D01*
X71957D01*
X72084Y78207D01*
Y78334D01*
X71957Y78461D01*
X71703D01*
X71576Y78334D01*
X58928Y66624D02*
Y65989D01*
X58801Y65862D01*
X58547D01*
X58420Y65989D01*
Y66624D01*
X58166Y65862D02*
X57912D01*
X58039D01*
Y66624D01*
X58166Y66497D01*
X64141Y69469D02*
Y70231D01*
X63760D01*
X63633Y70104D01*
Y69850D01*
X63760Y69723D01*
X64141D01*
X63887D02*
X63633Y69469D01*
X63252Y70104D02*
Y69977D01*
X63379D01*
X63125D01*
X63252D01*
Y69596D01*
X63125Y69469D01*
X68179Y54889D02*
Y55651D01*
X67799D01*
X67672Y55524D01*
Y55270D01*
X67799Y55143D01*
X68179D01*
X67925D02*
X67672Y54889D01*
X67418D02*
X67037D01*
X66910Y55016D01*
X67037Y55143D01*
X67291D01*
X67418Y55270D01*
X67291Y55397D01*
X66910D01*
X66656Y54889D02*
Y55397D01*
X66275D01*
X66148Y55270D01*
Y54889D01*
X65894D02*
X65513D01*
X65386Y55016D01*
X65513Y55143D01*
X65767D01*
X65894Y55270D01*
X65767Y55397D01*
X65386D01*
X64625Y54889D02*
X65132D01*
X64625Y55397D01*
Y55524D01*
X64751Y55651D01*
X65005D01*
X65132Y55524D01*
X60655Y50673D02*
Y51435D01*
X60274D01*
X60147Y51308D01*
Y51054D01*
X60274Y50927D01*
X60655D01*
X60401D02*
X60147Y50673D01*
X59893D02*
X59513D01*
X59386Y50800D01*
X59513Y50927D01*
X59766D01*
X59893Y51054D01*
X59766Y51181D01*
X59386D01*
X59132Y50673D02*
Y51181D01*
X58751D01*
X58624Y51054D01*
Y50673D01*
X58370D02*
X57989D01*
X57862Y50800D01*
X57989Y50927D01*
X58243D01*
X58370Y51054D01*
X58243Y51181D01*
X57862D01*
X57608Y50673D02*
X57354D01*
X57481D01*
Y51435D01*
X57608Y51308D01*
X62210Y70866D02*
Y71628D01*
X61830D01*
X61703Y71501D01*
Y71247D01*
X61830Y71120D01*
X62210D01*
X61956D02*
X61703Y70866D01*
X61449Y70612D02*
Y71374D01*
X61068D01*
X60941Y71247D01*
Y70993D01*
X61068Y70866D01*
X61449D01*
X60433Y70612D02*
X60306D01*
X60179Y70739D01*
Y71374D01*
X60560D01*
X60687Y71247D01*
Y70993D01*
X60560Y70866D01*
X60179D01*
X69698Y61290D02*
Y62052D01*
X69317D01*
X69190Y61925D01*
Y61671D01*
X69317Y61544D01*
X69698D01*
X69444D02*
X69190Y61290D01*
X68809D02*
Y61925D01*
Y61671D01*
X68936D01*
X68682D01*
X68809D01*
Y61925D01*
X68682Y62052D01*
X68301D02*
Y61290D01*
X67920D01*
X67793Y61417D01*
Y61544D01*
Y61671D01*
X67920Y61798D01*
X68301D01*
X67412Y61925D02*
Y61798D01*
X67539D01*
X67285D01*
X67412D01*
Y61417D01*
X67285Y61290D01*
X68631Y63195D02*
Y63957D01*
X68250D01*
X68123Y63830D01*
Y63576D01*
X68250Y63449D01*
X68631D01*
X68377D02*
X68123Y63195D01*
X67742D02*
Y63830D01*
Y63576D01*
X67869D01*
X67615D01*
X67742D01*
Y63830D01*
X67615Y63957D01*
X67234D02*
Y63195D01*
X66853D01*
X66726Y63322D01*
Y63449D01*
Y63576D01*
X66853Y63703D01*
X67234D01*
X66473Y63957D02*
Y63195D01*
X66092D01*
X65965Y63322D01*
Y63449D01*
Y63576D01*
X66092Y63703D01*
X66473D01*
X69393Y65049D02*
Y65811D01*
X69012D01*
X68885Y65684D01*
Y65430D01*
X69012Y65303D01*
X69393D01*
X69139D02*
X68885Y65049D01*
X68123Y65557D02*
X68504D01*
X68631Y65430D01*
Y65176D01*
X68504Y65049D01*
X68123D01*
X67742D02*
X67488D01*
X67361Y65176D01*
Y65430D01*
X67488Y65557D01*
X67742D01*
X67869Y65430D01*
Y65176D01*
X67742Y65049D01*
X67108D02*
Y65557D01*
X66981D01*
X66854Y65430D01*
Y65049D01*
Y65430D01*
X66727Y65557D01*
X66600Y65430D01*
Y65049D01*
X66346Y64795D02*
Y65557D01*
X65965D01*
X65838Y65430D01*
Y65176D01*
X65965Y65049D01*
X66346D01*
X59207Y58369D02*
Y59131D01*
X58827D01*
X58700Y59004D01*
Y58750D01*
X58827Y58623D01*
X59207D01*
X58953D02*
X58700Y58369D01*
X58446D02*
X58192D01*
X58319D01*
Y59131D01*
X58446Y59004D01*
X57430Y58369D02*
Y59131D01*
X57811Y58750D01*
X57303D01*
X65735Y59131D02*
Y59893D01*
X65354D01*
X65227Y59766D01*
Y59512D01*
X65354Y59385D01*
X65735D01*
X65481D02*
X65227Y59131D01*
X64973D02*
X64720D01*
X64846D01*
Y59893D01*
X64973Y59766D01*
X64339D02*
X64212Y59893D01*
X63958D01*
X63831Y59766D01*
Y59639D01*
X63958Y59512D01*
X64085D01*
X63958D01*
X63831Y59385D01*
Y59258D01*
X63958Y59131D01*
X64212D01*
X64339Y59258D01*
X52172Y70079D02*
Y70840D01*
X51918Y70586D01*
X51664Y70840D01*
Y70079D01*
X50902D02*
X51410D01*
X50902Y70586D01*
Y70713D01*
X51029Y70840D01*
X51283D01*
X51410Y70713D01*
X52248Y59385D02*
Y60147D01*
X51994Y59893D01*
X51740Y60147D01*
Y59385D01*
X51486D02*
X51232D01*
X51359D01*
Y60147D01*
X51486Y60020D01*
X51613Y47396D02*
Y46634D01*
X51105D01*
X50851D02*
X50597D01*
X50724D01*
Y47396D01*
X50851Y47269D01*
X57455Y61468D02*
X57582Y61595D01*
X57836D01*
X57963Y61468D01*
Y60960D01*
X57836Y60833D01*
X57582D01*
X57455Y60960D01*
X57201Y61341D02*
X56947Y60833D01*
X56693Y61341D01*
X56439Y60833D02*
X56185D01*
X56312D01*
Y61341D01*
X56439D01*
X55805Y60833D02*
Y61341D01*
X55424D01*
X55297Y61214D01*
Y60833D01*
X56774Y64496D02*
X56647Y64622D01*
Y64876D01*
X56774Y65003D01*
X57282D01*
X57409Y64876D01*
Y64622D01*
X57282Y64496D01*
X56901Y64242D02*
X57409Y63988D01*
X56901Y63734D01*
Y62972D02*
Y63353D01*
X57028Y63480D01*
X57282D01*
X57409Y63353D01*
Y62972D01*
X56901Y62210D02*
Y62591D01*
X57028Y62718D01*
X57282D01*
X57409Y62591D01*
Y62210D01*
X67005Y70866D02*
X67132Y70993D01*
X67386D01*
X67513Y70866D01*
Y70358D01*
X67386Y70231D01*
X67132D01*
X67005Y70358D01*
X66751Y70231D02*
X66371D01*
X66244Y70358D01*
X66371Y70485D01*
X66624D01*
X66751Y70612D01*
X66624Y70739D01*
X66244D01*
X65990Y70231D02*
X65609D01*
X65482Y70358D01*
X65609Y70485D01*
X65863D01*
X65990Y70612D01*
X65863Y70739D01*
X65482D01*
X39725Y55753D02*
X39852Y55626D01*
Y55372D01*
X39725Y55245D01*
X39218D01*
X39091Y55372D01*
Y55626D01*
X39218Y55753D01*
X39091Y56134D02*
Y56388D01*
X39218Y56515D01*
X39471D01*
X39598Y56388D01*
Y56134D01*
X39471Y56007D01*
X39218D01*
X39091Y56134D01*
X39598Y56769D02*
X39218D01*
X39091Y56895D01*
Y57276D01*
X39598D01*
X39725Y57657D02*
X39598D01*
Y57530D01*
Y57784D01*
Y57657D01*
X39218D01*
X39091Y57784D01*
X38964Y58165D02*
Y58673D01*
X39725Y58927D02*
X39852Y59054D01*
Y59308D01*
X39725Y59435D01*
X39598D01*
X39471Y59308D01*
Y59181D01*
Y59308D01*
X39345Y59435D01*
X39218D01*
X39091Y59308D01*
Y59054D01*
X39218Y58927D01*
X42138Y55702D02*
X42265Y55575D01*
Y55321D01*
X42138Y55194D01*
X41631D01*
X41504Y55321D01*
Y55575D01*
X41631Y55702D01*
X41504Y56083D02*
Y56337D01*
X41631Y56464D01*
X41884D01*
X42011Y56337D01*
Y56083D01*
X41884Y55956D01*
X41631D01*
X41504Y56083D01*
X42011Y56718D02*
X41631D01*
X41504Y56845D01*
Y57226D01*
X42011D01*
X42138Y57606D02*
X42011D01*
Y57479D01*
Y57733D01*
Y57606D01*
X41631D01*
X41504Y57733D01*
X41377Y58114D02*
Y58622D01*
X41504Y59384D02*
Y58876D01*
X42011Y59384D01*
X42138D01*
X42265Y59257D01*
Y59003D01*
X42138Y58876D01*
X44602Y55981D02*
X44729Y55854D01*
Y55601D01*
X44602Y55474D01*
X44094D01*
X43967Y55601D01*
Y55854D01*
X44094Y55981D01*
X43967Y56362D02*
Y56616D01*
X44094Y56743D01*
X44348D01*
X44475Y56616D01*
Y56362D01*
X44348Y56235D01*
X44094D01*
X43967Y56362D01*
X44475Y56997D02*
X44094D01*
X43967Y57124D01*
Y57505D01*
X44475D01*
X44602Y57886D02*
X44475D01*
Y57759D01*
Y58013D01*
Y57886D01*
X44094D01*
X43967Y58013D01*
X43840Y58394D02*
Y58901D01*
X43967Y59155D02*
Y59409D01*
Y59282D01*
X44729D01*
X44602Y59155D01*
X73482Y55550D02*
X73609Y55423D01*
Y55169D01*
X73482Y55042D01*
X72974D01*
X72847Y55169D01*
Y55423D01*
X72974Y55550D01*
X72847Y55804D02*
Y56057D01*
Y55931D01*
X73355D01*
Y55804D01*
X72847Y56438D02*
X73355D01*
Y56819D01*
X73228Y56946D01*
X72847D01*
X72720Y57200D02*
Y57708D01*
X73482Y57962D02*
X73609Y58089D01*
Y58343D01*
X73482Y58470D01*
X73355D01*
X73228Y58343D01*
Y58216D01*
Y58343D01*
X73101Y58470D01*
X72974D01*
X72847Y58343D01*
Y58089D01*
X72974Y57962D01*
X70612Y55626D02*
X70739Y55499D01*
Y55245D01*
X70612Y55118D01*
X70104D01*
X69977Y55245D01*
Y55499D01*
X70104Y55626D01*
X69977Y55880D02*
Y56134D01*
Y56007D01*
X70485D01*
Y55880D01*
X69977Y56515D02*
X70485D01*
Y56895D01*
X70358Y57022D01*
X69977D01*
X69850Y57276D02*
Y57784D01*
X69977Y58546D02*
Y58038D01*
X70485Y58546D01*
X70612D01*
X70739Y58419D01*
Y58165D01*
X70612Y58038D01*
X67361Y56616D02*
X67488Y56489D01*
Y56236D01*
X67361Y56109D01*
X66853D01*
X66726Y56236D01*
Y56489D01*
X66853Y56616D01*
X66726Y56870D02*
Y57124D01*
Y56997D01*
X67234D01*
Y56870D01*
X66726Y57505D02*
X67234D01*
Y57886D01*
X67107Y58013D01*
X66726D01*
X66599Y58267D02*
Y58775D01*
X66726Y59029D02*
Y59283D01*
Y59156D01*
X67488D01*
X67361Y59029D01*
X69748Y70536D02*
X69875Y70409D01*
Y70155D01*
X69748Y70028D01*
X69240D01*
X69113Y70155D01*
Y70409D01*
X69240Y70536D01*
X69621Y71297D02*
Y70917D01*
X69494Y70790D01*
X69240D01*
X69113Y70917D01*
Y71297D01*
Y71678D02*
Y71932D01*
X69240Y72059D01*
X69494D01*
X69621Y71932D01*
Y71678D01*
X69494Y71551D01*
X69240D01*
X69113Y71678D01*
Y72313D02*
X69621D01*
Y72440D01*
X69494Y72567D01*
X69113D01*
X69494D01*
X69621Y72694D01*
X69494Y72821D01*
X69113D01*
X68859Y73075D02*
X69621D01*
Y73456D01*
X69494Y73583D01*
X69240D01*
X69113Y73456D01*
Y73075D01*
X73742Y66341D02*
X73869Y66214D01*
Y65961D01*
X73742Y65834D01*
X73234D01*
X73107Y65961D01*
Y66214D01*
X73234Y66341D01*
X73615Y67103D02*
Y66722D01*
X73488Y66595D01*
X73234D01*
X73107Y66722D01*
Y67103D01*
Y67484D02*
Y67738D01*
X73234Y67865D01*
X73488D01*
X73615Y67738D01*
Y67484D01*
X73488Y67357D01*
X73234D01*
X73107Y67484D01*
Y68119D02*
X73615D01*
Y68246D01*
X73488Y68373D01*
X73107D01*
X73488D01*
X73615Y68500D01*
X73488Y68627D01*
X73107D01*
X72853Y68881D02*
X73615D01*
Y69261D01*
X73488Y69388D01*
X73234D01*
X73107Y69261D01*
Y68881D01*
Y70150D02*
Y69642D01*
X73615Y70150D01*
X73742D01*
X73869Y70023D01*
Y69769D01*
X73742Y69642D01*
X58649Y70256D02*
X58776Y70383D01*
X59030D01*
X59157Y70256D01*
Y69748D01*
X59030Y69621D01*
X58776D01*
X58649Y69748D01*
X58395Y70383D02*
Y69621D01*
X58014D01*
X57887Y69748D01*
Y69875D01*
Y70002D01*
X58014Y70129D01*
X58395D01*
X57506Y69621D02*
X57252D01*
X57125Y69748D01*
Y70002D01*
X57252Y70129D01*
X57506D01*
X57633Y70002D01*
Y69748D01*
X57506Y69621D01*
X56744D02*
X56490D01*
X56363Y69748D01*
Y70002D01*
X56490Y70129D01*
X56744D01*
X56871Y70002D01*
Y69748D01*
X56744Y69621D01*
X55983Y70256D02*
Y70129D01*
X56110D01*
X55856D01*
X55983D01*
Y69748D01*
X55856Y69621D01*
X63119Y63017D02*
X63246Y63144D01*
X63500D01*
X63627Y63017D01*
Y62509D01*
X63500Y62382D01*
X63246D01*
X63119Y62509D01*
X62865Y62382D02*
X62611D01*
X62738D01*
Y63144D01*
X62865Y63017D01*
X61723Y62382D02*
X62230D01*
X61723Y62890D01*
Y63017D01*
X61850Y63144D01*
X62103D01*
X62230Y63017D01*
M02*
